<svg version="1.1" xmlns="http://www.w3.org/2000/svg" xmlns:xlink="http://www.w3.org/1999/xlink" width="100%" height="100%" viewBox="0,0,256,256"><g fill="#a8c467" fill-rule="evenodd" stroke="none" stroke-width="1" stroke-linecap="butt" stroke-linejoin="round" stroke-miterlimit="2" stroke-dasharray="" stroke-dashoffset="0" font-family="none" font-weight="none" font-size="none" text-anchor="none" style="mix-blend-mode: normal"><g transform="translate(0,0)"><g><g><g><g><g><g transform="translate(0.00547,0.00203) scale(0.5,0.5)"><g transform="translate(0,-2810)"><g id="Icons"><path d="M444.217,2847.37l-15.108,-6.9c-2.512,-1.15 -5.478,-0.04 -6.626,2.47l-49.883,109.2c-1.146,2.51 -0.039,5.48 2.471,6.63c2.51,1.14 5.479,0.04 6.625,-2.47l47.806,-104.66l10.56,4.83l-67.77,148.35c-1.5,3.29 -0.75,7.03 1.604,9.5l-16.588,36.31v-197.29c0,-5.51 -4.477,-9.99 -9.992,-9.99h-307.118c-5.514,0 -9.991,4.48 -9.991,9.99v29.98c-7.605,2.99 -12.629,7.18 -15.558,11.56c-4.985,7.45 -4.628,15.83 -0.53,22.33c3.199,5.07 8.782,9.05 16.088,10.28v13.85c-7.605,2.99 -12.629,7.17 -15.558,11.55c-4.985,7.46 -4.628,15.84 -0.53,22.33c3.199,5.08 8.782,9.06 16.088,10.28v13.86c-7.605,2.99 -12.629,7.17 -15.558,11.55c-4.985,7.46 -4.628,15.84 -0.53,22.33c3.199,5.07 8.782,9.06 16.088,10.28v12.86c-7.605,2.99 -12.629,7.17 -15.558,11.55c-4.985,7.46 -4.628,15.84 -0.53,22.33c3.199,5.07 8.782,9.06 16.088,10.28v13.85c-7.605,3 -12.629,7.18 -15.558,11.56c-4.985,7.46 -4.628,15.84 -0.53,22.33c3.199,5.07 8.782,9.05 16.088,10.28v13.85c-7.605,3 -12.629,7.18 -15.558,11.56c-4.985,7.45 -4.628,15.83 -0.53,22.33c3.199,5.07 8.782,9.05 16.088,10.28v13.85c-7.605,2.99 -12.629,7.18 -15.558,11.56c-4.985,7.45 -4.628,15.83 -0.53,22.33c3.199,5.07 8.782,9.05 16.088,10.28v16.9c0,5.52 4.477,9.99 9.991,9.99h307.118c5.515,0 9.992,-4.47 9.992,-9.99v-133.01l57.351,-125.55c3.403,0.16 6.724,-1.72 8.225,-5.01l77.34,-169.3c1.967,-4.31 0.068,-9.4 -4.237,-11.37l-34.991,-15.98c-4.305,-1.97 -9.397,-0.07 -11.364,4.24zM347.308,3072.52v-219.17h-307.101v27.09c3.986,-0.79 8.44,-1.31 13.398,-1.5c1.995,-5.3 7.116,-9.08 13.112,-9.08c7.728,0 14.003,6.28 14.003,14c0,7.73 -6.275,14.01 -14.003,14.01c-5.939,0 -11.019,-3.71 -13.053,-8.93c-5.131,0.2 -9.603,0.76 -13.457,1.64v47.88c3.986,-0.79 8.44,-1.32 13.398,-1.5c1.995,-5.3 7.116,-9.08 13.112,-9.08c7.728,0 14.003,6.27 14.003,14c0,7.73 -6.275,14.01 -14.003,14.01c-5.939,0 -11.019,-3.71 -13.053,-8.93c-5.131,0.19 -9.603,0.76 -13.457,1.64v47.88c3.986,-0.79 8.44,-1.32 13.398,-1.5c1.995,-5.31 7.116,-9.08 13.112,-9.08c7.728,0 14.003,6.27 14.003,14c0,7.73 -6.275,14 -14.003,14c-5.939,0 -11.019,-3.7 -13.053,-8.92c-5.131,0.19 -9.603,0.76 -13.457,1.64v46.88c3.986,-0.79 8.44,-1.32 13.398,-1.51c1.995,-5.3 7.116,-9.07 13.112,-9.07c7.728,0 14.003,6.27 14.003,14c0,7.73 -6.275,14 -14.003,14c-5.939,0 -11.019,-3.7 -13.053,-8.93c-5.131,0.2 -9.603,0.77 -13.457,1.64v47.89c3.986,-0.8 8.44,-1.32 13.398,-1.51c1.995,-5.3 7.116,-9.08 13.112,-9.08c7.728,0 14.003,6.28 14.003,14.01c0,7.73 -6.275,14 -14.003,14c-5.939,0 -11.019,-3.7 -13.053,-8.93c-5.131,0.2 -9.603,0.77 -13.457,1.64v47.88c3.986,-0.79 8.44,-1.31 13.398,-1.5c1.995,-5.3 7.116,-9.08 13.112,-9.08c7.728,0 14.003,6.28 14.003,14.01c0,7.72 -6.275,14 -14.003,14c-5.939,0 -11.019,-3.71 -13.053,-8.93c-5.131,0.2 -9.603,0.77 -13.457,1.64v47.88c3.986,-0.79 8.44,-1.31 13.398,-1.5c1.995,-5.3 7.116,-9.08 13.112,-9.08c7.728,0 14.003,6.28 14.003,14c0,7.73 -6.275,14.01 -14.003,14.01c-5.939,0 -11.019,-3.71 -13.053,-8.93c-5.131,0.2 -9.603,0.77 -13.457,1.64v53.8h307.101v-111.11l-8.007,17.53c-1.614,3.53 -5.562,5.26 -9.184,4.21l-15.778,34.54c-1.145,2.5 -3.225,4.05 -4.976,4.56c-0.424,0.12 -0.845,0.2 -1.26,0.23c-4.586,19.72 -14.85,34.25 -28.83,45.39c-1.693,1.35 -4.062,1.45 -5.869,0.26c-1.806,-1.19 -2.641,-3.41 -2.068,-5.5c2.079,-7.57 3.072,-14.95 0.145,-21.83c-0.665,-1.56 -0.494,-3.35 0.455,-4.75l15.288,-22.65c-0.515,-0.51 -0.949,-1.13 -1.28,-1.85c-0.763,-1.65 -0.956,-4.24 0.189,-6.75l15.752,-34.48c-3.545,-1.91 -5.047,-6.29 -3.348,-10.01zM296.237,3236.89c-4.661,6.9 -14.574,21.59 -14.574,21.59c1.134,3.5 1.619,7.1 1.613,10.76c7.286,-8.44 12.616,-18.67 15.357,-31.26zM30.207,3241.28c-3.282,1.77 -5.67,3.91 -7.245,6.27c-2.554,3.82 -2.485,8.1 -0.386,11.43c1.588,2.52 4.24,4.45 7.631,5.38zM66.717,3226.97c2.209,0 4.003,1.79 4.003,4c0,2.21 -1.794,4.01 -4.003,4.01c-2.21,0 -4.003,-1.8 -4.003,-4.01c0,-2.21 1.793,-4 4.003,-4zM296.173,3225.86l0.293,0.14c0.047,0.02 0.093,0.04 0.139,0.06l9.582,4.38l14.801,-32.4l-10.015,-4.58zM30.207,3183.26c-3.282,1.78 -5.67,3.91 -7.245,6.27c-2.554,3.82 -2.485,8.11 -0.386,11.43c1.588,2.52 4.24,4.45 7.631,5.38zM308.577,3181.37l22.572,10.31l6.82,-14.93l-22.572,-10.31zM66.717,3168.95c2.209,0 4.003,1.8 4.003,4.01c0,2.2 -1.794,4 -4.003,4c-2.21,0 -4.003,-1.8 -4.003,-4c0,-2.21 1.793,-4.01 4.003,-4.01zM347.788,3155.26l50.539,-110.64l-22.572,-10.31l-18.865,41.3l-0.024,0.05c-0.009,0.02 -0.017,0.04 -0.026,0.06l-0.013,0.03l-37.275,81.6l22.572,10.31l5.601,-12.26l0.025,-0.06c0.008,-0.02 0.017,-0.03 0.025,-0.05zM30.207,3125.24c-3.282,1.78 -5.67,3.91 -7.245,6.27c-2.554,3.82 -2.485,8.11 -0.386,11.43c1.588,2.52 4.24,4.45 7.631,5.39zM66.717,3110.93c2.209,0 4.003,1.8 4.003,4.01c0,2.21 -1.794,4 -4.003,4c-2.21,0 -4.003,-1.79 -4.003,-4c0,-2.21 1.793,-4.01 4.003,-4.01zM30.207,3067.22c-3.282,1.78 -5.67,3.91 -7.245,6.27c-2.554,3.82 -2.485,8.11 -0.386,11.44c1.588,2.51 4.24,4.44 7.631,5.38zM66.717,3052.92c2.209,0 4.003,1.79 4.003,4c0,2.21 -1.794,4 -4.003,4c-2.21,0 -4.003,-1.79 -4.003,-4c0,-2.21 1.793,-4 4.003,-4zM379.911,3025.22l22.571,10.31l2.829,-6.19l-22.572,-10.32zM30.207,3010.2c-3.282,1.78 -5.67,3.92 -7.245,6.27c-2.554,3.82 -2.485,8.11 -0.386,11.44c1.588,2.51 4.24,4.44 7.631,5.38zM381.98,3007.68l32.4,14.8l6.819,-14.92l-32.4,-14.8zM66.717,2995.9c2.209,0 4.003,1.79 4.003,4c0,2.21 -1.794,4 -4.003,4c-2.21,0 -4.003,-1.79 -4.003,-4c0,-2.21 1.793,-4 4.003,-4zM392.954,2983.66l32.4,14.8l4.325,-9.47l-32.4,-14.8zM401.434,2965.1l32.4,14.8l47.724,-104.48l-32.4,-14.8zM30.207,2952.19c-3.282,1.77 -5.67,3.91 -7.245,6.26c-2.554,3.82 -2.485,8.11 -0.386,11.44c1.588,2.52 4.24,4.44 7.631,5.38zM66.717,2937.88c2.209,0 4.003,1.79 4.003,4c0,2.21 -1.794,4.01 -4.003,4.01c-2.21,0 -4.003,-1.8 -4.003,-4.01c0,-2.21 1.793,-4 4.003,-4zM30.207,2894.17c-3.282,1.77 -5.67,3.91 -7.245,6.26c-2.554,3.82 -2.485,8.11 -0.386,11.44c1.588,2.52 4.24,4.45 7.631,5.38zM66.717,2879.86c2.209,0 4.003,1.79 4.003,4c0,2.21 -1.794,4.01 -4.003,4.01c-2.21,0 -4.003,-1.8 -4.003,-4.01c0,-2.21 1.793,-4 4.003,-4zM453.313,2851.53l32.4,14.8l4.824,-10.56l-32.4,-14.8z"></path></g></g></g></g></g></g></g></g></g></g></svg>