<svg version="1.1" xmlns="http://www.w3.org/2000/svg" xmlns:xlink="http://www.w3.org/1999/xlink" width="100%" height="100%" viewBox="0,0,256,256"><g fill="#a8c467" fill-rule="evenodd" stroke="none" stroke-width="1" stroke-linecap="butt" stroke-linejoin="round" stroke-miterlimit="2" stroke-dasharray="" stroke-dashoffset="0" font-family="none" font-weight="none" font-size="none" text-anchor="none" style="mix-blend-mode: normal"><g transform="translate(0,0)"><g><g><g><g transform="translate(0,-0.00012) scale(0.5,0.5)"><g transform="translate(-1124,0)"><g id="Icons"><path d="M1400.8,291.24c-4.86,19.273 -19.36,33.471 -39.77,44.673c-33.35,18.31 -82.19,28.5 -133.27,37.616c-2.35,0.42 -4.08,2.45 -4.12,4.843c-0.03,2.392 1.63,4.476 3.97,4.971l49.51,10.461l9.87,14.708c1.18,1.75 3.33,2.576 5.37,2.063c55.28,-13.854 108.41,-31.252 144.71,-53.649c11.04,-6.808 20.54,-14.108 28.16,-21.904c1.37,0.085 2.75,0.129 4.13,0.13c-0.02,0 48.7,1.635 63.47,2.13c1.43,0.095 2.88,0.143 4.33,0.143c0.02,0 0.04,0 0.05,0c47.99,-0.021 87.79,-52.066 87.79,-116.939c0,-64.846 -39.76,-116.876 -87.73,-116.938l-67.68,-2.27c-0.06,-0.002 -0.11,-0.003 -0.17,-0.003c-48,0 -87.81,52.053 -87.81,116.939c0,27.667 7.21,53.076 19.19,73.026zM1503.69,112.427c-17.09,-0.573 -34.36,-1.152 -34.36,-1.152c-16.95,0.029 -32.58,7.567 -45.28,20.161c-19.75,19.564 -32.44,51.186 -32.44,86.778c0,25.562 6.55,49.068 17.57,67.556l7.57,1.11c2.73,0.4 4.62,2.942 4.22,5.672c-0.4,2.731 -2.94,4.623 -5.67,4.222l-5.43,-0.795c-6.02,20.714 -21.71,36.454 -44.02,48.7c-28.68,15.742 -68.5,25.761 -111.5,34.093l26.82,5.668c1.28,0.269 2.4,1.024 3.12,2.105c0,0 9.05,13.472 9.05,13.471c52.95,-13.433 103.64,-30.108 138.48,-51.601c10.42,-6.427 19.42,-13.252 26.53,-20.561c0.47,-1.093 1.31,-1.974 2.35,-2.501c5.69,-6.315 9.99,-12.989 12.61,-20.076l-8.54,-1.252c-2.73,-0.4 -4.62,-2.942 -4.22,-5.672c0.4,-2.731 2.94,-4.622 5.67,-4.222l3.11,0.455c-12.45,-20.137 -19.96,-45.907 -19.96,-74.1c0,-48.91 22.62,-90.529 54.32,-108.059zM1537.17,113.548h0.02c16.98,0.003 32.64,7.546 45.37,20.161c19.74,19.564 32.44,51.186 32.44,86.777c0,35.592 -12.7,67.214 -32.44,86.778c-12.71,12.598 -28.34,20.137 -45.3,20.161l-3.99,-0.134c-15.47,-1.062 -29.72,-8.385 -41.46,-20.027c-19.74,-19.564 -32.44,-51.186 -32.44,-86.778c0,-35.591 12.7,-67.213 32.44,-86.777c12.73,-12.615 28.38,-20.158 45.36,-20.161zM1481.76,311.067c-2.07,4.896 -4.82,9.637 -8.2,14.221l26.11,0.876c-6.43,-4.071 -12.44,-9.155 -17.91,-15.097zM1135,186.509v91.444c0,2.76 1.04,5.524 3.33,8.134c2.42,2.769 6.5,5.508 12.12,7.941c18.92,8.189 57.02,13.927 100.92,13.927c43.9,0 82,-5.738 100.92,-13.927c5.62,-2.433 9.7,-5.172 12.12,-7.941c2.29,-2.61 3.33,-5.374 3.33,-8.134v-91.444v-0.065c-0.01,-2.738 -1.06,-5.479 -3.33,-8.069c-2.42,-2.769 -6.5,-5.508 -12.12,-7.94c-18.92,-8.19 -57.02,-13.928 -100.92,-13.928c-43.9,0 -82,5.738 -100.92,13.928c-5.62,2.432 -9.7,5.171 -12.12,7.94c-2.29,2.611 -3.33,5.374 -3.33,8.134zM1435.09,299.675c3.26,0.477 6.59,0.966 9.89,1.45c2.73,0.4 5.28,-1.492 5.67,-4.222c0.41,-2.731 -1.49,-5.272 -4.22,-5.673c-3.3,-0.484 -6.63,-0.972 -9.89,-1.45c-2.73,-0.4 -5.27,1.492 -5.67,4.222c-0.4,2.731 1.49,5.272 4.22,5.673zM1357.74,199.857c-1.62,0.94 -3.43,1.853 -5.45,2.726c-18.92,8.189 -57.02,13.927 -100.92,13.927c-43.9,0 -82,-5.738 -100.92,-13.927c-2.02,-0.873 -3.83,-1.786 -5.45,-2.726v78.096c0,0.852 0.73,1.514 1.6,2.306c1.79,1.63 4.46,3.135 7.82,4.591c18.17,7.864 54.79,13.105 96.95,13.105c42.16,0 78.78,-5.241 96.95,-13.105c3.36,-1.456 6.03,-2.961 7.82,-4.591c0.87,-0.792 1.6,-1.454 1.6,-2.306zM1507.05,157.132c-0.08,0.047 -0.17,0.096 -0.25,0.148c-0.52,0.328 -0.95,0.735 -1.31,1.197c-14.99,13.415 -25.01,36.073 -25.01,62.009c0,17.96 4.8,34.347 12.74,47.185c0.2,0.507 0.48,0.99 0.86,1.426c0.05,0.056 0.1,0.111 0.15,0.165c10.47,16.028 25.96,26.115 42.95,26.115c30.84,0 56.71,-33.211 56.71,-74.891c0,-41.679 -25.87,-74.89 -56.71,-74.89c-10.99,0 -21.35,4.218 -30.13,11.536zM1504.39,266.587c1.79,2.447 3.72,4.705 5.78,6.746c7.59,7.515 16.9,12.044 27.01,12.044c10.12,0 19.43,-4.529 27.01,-12.044c12.02,-11.91 19.7,-31.179 19.7,-52.847c0,-21.667 -7.68,-40.936 -19.7,-52.847c-7.58,-7.514 -16.89,-12.043 -27.01,-12.043c-7.65,0 -14.85,2.596 -21.19,7.12c6.8,12.325 10.85,27.595 10.85,44.133c0,24.489 -8.91,46.173 -22.45,59.738zM1508.31,169.58c-10.94,12.004 -17.83,30.379 -17.83,50.906c0,13.835 3.13,26.692 8.52,37.281c10.95,-11.99 17.84,-30.38 17.84,-50.918c0,-13.827 -3.13,-26.671 -8.53,-37.269zM1251.71,206.51h-0.34h-0.34c-28.4,-0.027 -53.06,-3.525 -65.31,-8.829c-1.75,-0.759 -3.21,-1.538 -4.32,-2.371c-0.33,-0.249 -0.7,-0.626 -0.94,-0.893c0.24,-0.266 0.61,-0.643 0.94,-0.892c1.11,-0.833 2.57,-1.612 4.32,-2.371c12.3,-5.325 37.11,-8.829 65.65,-8.829c28.54,0 53.35,3.504 65.65,8.829c1.76,0.759 3.22,1.538 4.32,2.371c0.33,0.249 0.7,0.626 0.94,0.892c-0.24,0.267 -0.61,0.644 -0.94,0.893c-1.1,0.833 -2.56,1.612 -4.32,2.371c-12.25,5.304 -36.91,8.802 -65.31,8.829zM1331.41,198.777c6.66,-1.599 12.36,-3.403 16.91,-5.371c3.36,-1.457 6.03,-2.962 7.82,-4.592c0.87,-0.791 1.6,-1.453 1.6,-2.305c0,-0.852 -0.73,-1.514 -1.6,-2.306c-1.79,-1.629 -4.46,-3.134 -7.82,-4.591c-18.17,-7.864 -54.79,-13.105 -96.95,-13.105c-42.16,0 -78.78,5.241 -96.95,13.105c-3.36,1.457 -6.03,2.962 -7.82,4.591c-0.87,0.792 -1.6,1.454 -1.6,2.306c0,0.852 0.73,1.514 1.6,2.305c1.79,1.63 4.46,3.135 7.82,4.592c4.55,1.968 10.26,3.772 16.91,5.371c-0.75,-1.431 -1.1,-2.899 -1.1,-4.36c0,-2.236 0.81,-4.487 2.67,-6.602c1.77,-2.026 4.74,-4.059 8.85,-5.839c13.05,-5.65 39.33,-9.651 69.62,-9.651c30.29,0 56.57,4.001 69.62,9.651c4.12,1.78 7.08,3.813 8.86,5.839c1.85,2.115 2.66,4.366 2.66,6.602c0,1.461 -0.35,2.929 -1.1,4.36z"></path></g></g></g></g></g></g></g></g></svg>