<svg version="1.1" xmlns="http://www.w3.org/2000/svg" xmlns:xlink="http://www.w3.org/1999/xlink" width="100%" height="100%" viewBox="0,0,256,256"><g fill="#a8c467" fill-rule="evenodd" stroke="none" stroke-width="1" stroke-linecap="butt" stroke-linejoin="round" stroke-miterlimit="2" stroke-dasharray="" stroke-dashoffset="0" font-family="none" font-weight="none" font-size="none" text-anchor="none" style="mix-blend-mode: normal"><g transform="translate(0,0)"><g><g><g><g><g><g transform="translate(0,-0.00879) scale(0.5,0.5)"><g transform="translate(-1124,-2248)"><g id="Icons"><path d="M1358.55,2440.33l-0.7,20.58c0,0.05 0,0.1 0,0.16l-9.42,275.85c-0.07,1.93 0.99,3.73 2.71,4.61c19.25,9.91 38.51,10.11 57.76,-0.02c1.7,-0.89 2.74,-2.67 2.67,-4.59l-9.42,-275.85c0,-0.06 0,-0.11 0,-0.16l-0.7,-20.58c40.4,-9.67 70.47,-46.05 70.47,-89.4c0,-50.74 -41.18,-91.93 -91.92,-91.93c-50.73,0 -91.92,41.19 -91.92,91.93c0,43.35 30.07,79.73 70.47,89.4zM1392.35,2467.03c-4.04,0.54 -8.16,0.82 -12.35,0.82c-4.19,0 -8.31,-0.28 -12.35,-0.82l-7.53,220.49c-0.53,15.5 -1.11,30.99 -1.58,46.49c-0.01,0.06 0.11,0.05 0.16,0.08c0.11,0.05 0.23,0.1 0.34,0.15c0.61,0.27 1.22,0.53 1.84,0.79c2.46,0.99 4.98,1.83 7.55,2.47c3.02,0.76 6.11,1.23 9.22,1.4c3.08,0.16 6.18,0.02 9.23,-0.42c3.02,-0.44 5.99,-1.17 8.88,-2.15c1.95,-0.66 3.85,-1.43 5.71,-2.29zM1391.5,2442.14c-3.76,0.47 -7.6,0.71 -11.5,0.71c-3.9,0 -7.74,-0.24 -11.5,-0.71l-0.51,14.83c3.92,0.58 7.93,0.88 12.01,0.88c4.08,0 8.09,-0.3 12.01,-0.88zM1380,2269c45.22,0 81.92,36.71 81.92,81.93c0,45.21 -36.7,81.92 -81.92,81.92c-45.22,0 -81.92,-36.71 -81.92,-81.92c0,-45.22 36.7,-81.93 81.92,-81.93zM1380,2282.11c-37.98,0 -68.82,30.83 -68.82,68.82c0,37.98 30.84,68.81 68.82,68.81c37.98,0 68.82,-30.83 68.82,-68.81c0,-37.99 -30.84,-68.82 -68.82,-68.82zM1380,2292.11c32.46,0 58.82,26.35 58.82,58.82c0,32.46 -26.36,58.81 -58.82,58.81c-32.46,0 -58.82,-26.35 -58.82,-58.81c0,-32.47 26.36,-58.82 58.82,-58.82zM1359.62,2378.83c-8.59,-6.29 -14.18,-16.45 -14.18,-27.9c0,-13.16 7.37,-24.6 18.19,-30.44c2.43,-1.31 3.34,-4.35 2.03,-6.77c-1.31,-2.43 -4.35,-3.34 -6.78,-2.03c-13.95,7.53 -23.44,22.28 -23.44,39.24c0,14.76 7.2,27.86 18.28,35.97c2.22,1.63 5.35,1.14 6.98,-1.08c1.63,-2.23 1.15,-5.36 -1.08,-6.99z"></path></g></g></g></g></g></g></g></g></g></g></svg>