<svg version="1.1" xmlns="http://www.w3.org/2000/svg" xmlns:xlink="http://www.w3.org/1999/xlink" width="63px" height="63px" viewBox="0,0,256,256"><g fill="#25ffd7" fill-rule="nonzero" stroke="none" stroke-width="1" stroke-linecap="butt" stroke-linejoin="miter" stroke-miterlimit="10" stroke-dasharray="" stroke-dashoffset="0" font-family="none" font-weight="none" font-size="none" text-anchor="none" style="mix-blend-mode: normal"><g transform="scale(4.06349,4.06349)"><g><g><g id="group-7svg"><path d="M57.5,57.5c0,3.038 -2.463,5.5 -5.5,5.5h-41c-3.037,0 -5.5,-2.462 -5.5,-5.5v-52c0,-3.038 2.463,-5.5 5.5,-5.5h41c3.037,0 5.5,2.462 5.5,5.5zM54.5,5.5c0,-1.381 -1.119,-2.5 -2.5,-2.5h-41c-1.381,0 -2.5,1.119 -2.5,2.5v52c0,1.381 1.119,2.5 2.5,2.5h41c1.381,0 2.5,-1.119 2.5,-2.5z" id="path-1_27_"></path><path d="M55.573,19h-49c-0.828,0 -1.073,-0.671 -1.073,-1.5v-11.519c0,-3.074 2.453,-5.981 5.499,-5.981h40.62c3.214,0 5.881,3.152 5.881,5.981v11.519c0,0.829 -1.099,1.5 -1.927,1.5zM8.5,16h46v-10.019c0,-1.35 -1.522,-2.981 -2.881,-2.981h-40.62c-1.367,0 -2.499,1.588 -2.499,2.981z" id="path-2_27_"></path><path d="M23,18.5c-0.828,0 -1.5,-0.671 -1.5,-1.5v-15c0,-0.829 0.672,-1.5 1.5,-1.5c0.828,0 1.5,0.671 1.5,1.5v15c0,0.829 -0.672,1.5 -1.5,1.5z" id="path-3_27_"></path><path d="M50.705,9.739c0,1.429 -1.157,2.587 -2.586,2.587c-1.429,0 -2.586,-1.158 -2.586,-2.587c0,-1.428 1.157,-2.586 2.586,-2.586c1.429,0 2.586,1.158 2.586,2.586z" id="path-4_26_"></path><path d="M43.464,9.739c0,1.429 -1.157,2.587 -2.586,2.587c-1.429,0 -2.586,-1.158 -2.586,-2.587c0,-1.428 1.157,-2.586 2.586,-2.586c1.429,0 2.586,1.158 2.586,2.586z" id="path-5_26_"></path><path d="M36.223,9.739c0,1.429 -1.159,2.587 -2.586,2.587c-1.429,0 -2.586,-1.158 -2.586,-2.587c0,-1.428 1.157,-2.586 2.586,-2.586c1.427,0 2.586,1.158 2.586,2.586z" id="path-6_22_"></path><path d="M30.727,55.334c-7.922,0 -14.367,-6.444 -14.367,-14.366c0,-7.922 6.445,-14.366 14.367,-14.366c7.921,0 14.367,6.444 14.367,14.366c0,7.922 -6.446,14.366 -14.367,14.366zM30.727,29.602c-6.268,0 -11.367,5.098 -11.367,11.366c0,6.267 5.099,11.366 11.367,11.366c6.267,0 11.367,-5.099 11.367,-11.366c0,-6.268 -5.1,-11.366 -11.367,-11.366z" id="path-7_18_"></path><path d="M25.252,45.712c-3.508,0 -6.553,-2.046 -8.095,-3.684c-0.568,-0.603 -0.54,-1.552 0.064,-2.12c0.599,-0.568 1.548,-0.541 2.117,0.06v0c0.208,0.217 5.14,5.272 10.189,1.041c5.714,-4.781 11.719,-2.073 14.094,0.027c0.621,0.548 0.68,1.496 0.131,2.117c-0.549,0.62 -1.497,0.679 -2.117,0.131c-0.198,-0.173 -5.042,-4.277 -10.182,0.026c-2.09,1.749 -4.219,2.402 -6.201,2.402z" id="path-8_16_"></path><path d="M38.809,43.877c0,0.572 -0.463,1.035 -1.035,1.035c-0.571,0 -1.034,-0.463 -1.034,-1.035c0,-0.571 0.463,-1.034 1.034,-1.034c0.572,0 1.035,0.463 1.035,1.034z" id="path-9_13_"></path><path d="M37.774,48.015c0,0.571 -0.463,1.035 -1.034,1.035c-0.571,0 -1.035,-0.464 -1.035,-1.035c0,-0.571 0.464,-1.034 1.035,-1.034c0.571,0 1.034,0.463 1.034,1.034z" id="path-10_9_"></path><path d="M33.637,44.912c0,0.571 -0.463,1.034 -1.035,1.034c-0.572,0 -1.035,-0.463 -1.035,-1.034c0,-0.572 0.463,-1.035 1.035,-1.035c0.572,0 1.035,0.463 1.035,1.035z" id="path-11_7_"></path><path d="M31.567,49.05c0,0.571 -0.463,1.034 -1.034,1.034c-0.571,0 -1.034,-0.463 -1.034,-1.034c0,-0.572 0.463,-1.035 1.034,-1.035c0.571,0 1.034,0.463 1.034,1.035z" id="path-12_5_"></path><path d="M25.36,46.981c0,0.571 -0.463,1.034 -1.034,1.034c-0.571,0 -1.034,-0.463 -1.034,-1.034c0,-0.571 0.463,-1.035 1.034,-1.035c0.571,0 1.034,0.464 1.034,1.035z" id="path-13_3_"></path></g></g><g font-family="Inter, apple-system, &quot;system-ui&quot;, &quot;Helvetica Neue&quot;, &quot;Segoe UI&quot;, &quot;Fira Sans&quot;, Roboto, Oxygen, Ubuntu, &quot;Droid Sans&quot;, Arial, sans-serif" font-weight="400" font-size="16" text-anchor="start"></g><g font-family="Inter, apple-system, &quot;system-ui&quot;, &quot;Helvetica Neue&quot;, &quot;Segoe UI&quot;, &quot;Fira Sans&quot;, Roboto, Oxygen, Ubuntu, &quot;Droid Sans&quot;, Arial, sans-serif" font-weight="400" font-size="16" text-anchor="start"></g><g font-family="Inter, apple-system, &quot;system-ui&quot;, &quot;Helvetica Neue&quot;, &quot;Segoe UI&quot;, &quot;Fira Sans&quot;, Roboto, Oxygen, Ubuntu, &quot;Droid Sans&quot;, Arial, sans-serif" font-weight="400" font-size="16" text-anchor="start"></g><g font-family="Inter, apple-system, &quot;system-ui&quot;, &quot;Helvetica Neue&quot;, &quot;Segoe UI&quot;, &quot;Fira Sans&quot;, Roboto, Oxygen, Ubuntu, &quot;Droid Sans&quot;, Arial, sans-serif" font-weight="400" font-size="16" text-anchor="start"></g><g font-family="Inter, apple-system, &quot;system-ui&quot;, &quot;Helvetica Neue&quot;, &quot;Segoe UI&quot;, &quot;Fira Sans&quot;, Roboto, Oxygen, Ubuntu, &quot;Droid Sans&quot;, Arial, sans-serif" font-weight="400" font-size="16" text-anchor="start"></g><g font-family="Inter, apple-system, &quot;system-ui&quot;, &quot;Helvetica Neue&quot;, &quot;Segoe UI&quot;, &quot;Fira Sans&quot;, Roboto, Oxygen, Ubuntu, &quot;Droid Sans&quot;, Arial, sans-serif" font-weight="400" font-size="16" text-anchor="start"></g><g font-family="Inter, apple-system, &quot;system-ui&quot;, &quot;Helvetica Neue&quot;, &quot;Segoe UI&quot;, &quot;Fira Sans&quot;, Roboto, Oxygen, Ubuntu, &quot;Droid Sans&quot;, Arial, sans-serif" font-weight="400" font-size="16" text-anchor="start"></g><g font-family="Inter, apple-system, &quot;system-ui&quot;, &quot;Helvetica Neue&quot;, &quot;Segoe UI&quot;, &quot;Fira Sans&quot;, Roboto, Oxygen, Ubuntu, &quot;Droid Sans&quot;, Arial, sans-serif" font-weight="400" font-size="16" text-anchor="start"></g><g font-family="Inter, apple-system, &quot;system-ui&quot;, &quot;Helvetica Neue&quot;, &quot;Segoe UI&quot;, &quot;Fira Sans&quot;, Roboto, Oxygen, Ubuntu, &quot;Droid Sans&quot;, Arial, sans-serif" font-weight="400" font-size="16" text-anchor="start"></g><g font-family="Inter, apple-system, &quot;system-ui&quot;, &quot;Helvetica Neue&quot;, &quot;Segoe UI&quot;, &quot;Fira Sans&quot;, Roboto, Oxygen, Ubuntu, &quot;Droid Sans&quot;, Arial, sans-serif" font-weight="400" font-size="16" text-anchor="start"></g><g font-family="Inter, apple-system, &quot;system-ui&quot;, &quot;Helvetica Neue&quot;, &quot;Segoe UI&quot;, &quot;Fira Sans&quot;, Roboto, Oxygen, Ubuntu, &quot;Droid Sans&quot;, Arial, sans-serif" font-weight="400" font-size="16" text-anchor="start"></g><g font-family="Inter, apple-system, &quot;system-ui&quot;, &quot;Helvetica Neue&quot;, &quot;Segoe UI&quot;, &quot;Fira Sans&quot;, Roboto, Oxygen, Ubuntu, &quot;Droid Sans&quot;, Arial, sans-serif" font-weight="400" font-size="16" text-anchor="start"></g><g font-family="Inter, apple-system, &quot;system-ui&quot;, &quot;Helvetica Neue&quot;, &quot;Segoe UI&quot;, &quot;Fira Sans&quot;, Roboto, Oxygen, Ubuntu, &quot;Droid Sans&quot;, Arial, sans-serif" font-weight="400" font-size="16" text-anchor="start"></g><g font-family="Inter, apple-system, &quot;system-ui&quot;, &quot;Helvetica Neue&quot;, &quot;Segoe UI&quot;, &quot;Fira Sans&quot;, Roboto, Oxygen, Ubuntu, &quot;Droid Sans&quot;, Arial, sans-serif" font-weight="400" font-size="16" text-anchor="start"></g><g font-family="Inter, apple-system, &quot;system-ui&quot;, &quot;Helvetica Neue&quot;, &quot;Segoe UI&quot;, &quot;Fira Sans&quot;, Roboto, Oxygen, Ubuntu, &quot;Droid Sans&quot;, Arial, sans-serif" font-weight="400" font-size="16" text-anchor="start"></g></g><g font-family="Inter, apple-system, &quot;system-ui&quot;, &quot;Helvetica Neue&quot;, &quot;Segoe UI&quot;, &quot;Fira Sans&quot;, Roboto, Oxygen, Ubuntu, &quot;Droid Sans&quot;, Arial, sans-serif" font-weight="400" font-size="16" text-anchor="start"></g><g font-family="Inter, apple-system, &quot;system-ui&quot;, &quot;Helvetica Neue&quot;, &quot;Segoe UI&quot;, &quot;Fira Sans&quot;, Roboto, Oxygen, Ubuntu, &quot;Droid Sans&quot;, Arial, sans-serif" font-weight="400" font-size="16" text-anchor="start"></g><g font-family="Inter, apple-system, &quot;system-ui&quot;, &quot;Helvetica Neue&quot;, &quot;Segoe UI&quot;, &quot;Fira Sans&quot;, Roboto, Oxygen, Ubuntu, &quot;Droid Sans&quot;, Arial, sans-serif" font-weight="400" font-size="16" text-anchor="start"></g><g font-family="Inter, apple-system, &quot;system-ui&quot;, &quot;Helvetica Neue&quot;, &quot;Segoe UI&quot;, &quot;Fira Sans&quot;, Roboto, Oxygen, Ubuntu, &quot;Droid Sans&quot;, Arial, sans-serif" font-weight="400" font-size="16" text-anchor="start"></g><g font-family="Inter, apple-system, &quot;system-ui&quot;, &quot;Helvetica Neue&quot;, &quot;Segoe UI&quot;, &quot;Fira Sans&quot;, Roboto, Oxygen, Ubuntu, &quot;Droid Sans&quot;, Arial, sans-serif" font-weight="400" font-size="16" text-anchor="start"></g><g font-family="Inter, apple-system, &quot;system-ui&quot;, &quot;Helvetica Neue&quot;, &quot;Segoe UI&quot;, &quot;Fira Sans&quot;, Roboto, Oxygen, Ubuntu, &quot;Droid Sans&quot;, Arial, sans-serif" font-weight="400" font-size="16" text-anchor="start"></g><g font-family="Inter, apple-system, &quot;system-ui&quot;, &quot;Helvetica Neue&quot;, &quot;Segoe UI&quot;, &quot;Fira Sans&quot;, Roboto, Oxygen, Ubuntu, &quot;Droid Sans&quot;, Arial, sans-serif" font-weight="400" font-size="16" text-anchor="start"></g><g font-family="Inter, apple-system, &quot;system-ui&quot;, &quot;Helvetica Neue&quot;, &quot;Segoe UI&quot;, &quot;Fira Sans&quot;, Roboto, Oxygen, Ubuntu, &quot;Droid Sans&quot;, Arial, sans-serif" font-weight="400" font-size="16" text-anchor="start"></g><g font-family="Inter, apple-system, &quot;system-ui&quot;, &quot;Helvetica Neue&quot;, &quot;Segoe UI&quot;, &quot;Fira Sans&quot;, Roboto, Oxygen, Ubuntu, &quot;Droid Sans&quot;, Arial, sans-serif" font-weight="400" font-size="16" text-anchor="start"></g><g font-family="Inter, apple-system, &quot;system-ui&quot;, &quot;Helvetica Neue&quot;, &quot;Segoe UI&quot;, &quot;Fira Sans&quot;, Roboto, Oxygen, Ubuntu, &quot;Droid Sans&quot;, Arial, sans-serif" font-weight="400" font-size="16" text-anchor="start"></g><g font-family="Inter, apple-system, &quot;system-ui&quot;, &quot;Helvetica Neue&quot;, &quot;Segoe UI&quot;, &quot;Fira Sans&quot;, Roboto, Oxygen, Ubuntu, &quot;Droid Sans&quot;, Arial, sans-serif" font-weight="400" font-size="16" text-anchor="start"></g><g font-family="Inter, apple-system, &quot;system-ui&quot;, &quot;Helvetica Neue&quot;, &quot;Segoe UI&quot;, &quot;Fira Sans&quot;, Roboto, Oxygen, Ubuntu, &quot;Droid Sans&quot;, Arial, sans-serif" font-weight="400" font-size="16" text-anchor="start"></g><g font-family="Inter, apple-system, &quot;system-ui&quot;, &quot;Helvetica Neue&quot;, &quot;Segoe UI&quot;, &quot;Fira Sans&quot;, Roboto, Oxygen, Ubuntu, &quot;Droid Sans&quot;, Arial, sans-serif" font-weight="400" font-size="16" text-anchor="start"></g><g font-family="Inter, apple-system, &quot;system-ui&quot;, &quot;Helvetica Neue&quot;, &quot;Segoe UI&quot;, &quot;Fira Sans&quot;, Roboto, Oxygen, Ubuntu, &quot;Droid Sans&quot;, Arial, sans-serif" font-weight="400" font-size="16" text-anchor="start"></g><g font-family="Inter, apple-system, &quot;system-ui&quot;, &quot;Helvetica Neue&quot;, &quot;Segoe UI&quot;, &quot;Fira Sans&quot;, Roboto, Oxygen, Ubuntu, &quot;Droid Sans&quot;, Arial, sans-serif" font-weight="400" font-size="16" text-anchor="start"></g></g></g></svg>