<svg version="1.1" xmlns="http://www.w3.org/2000/svg" xmlns:xlink="http://www.w3.org/1999/xlink" width="32" height="32" viewBox="0,0,256,256"><g fill="none" fill-rule="nonzero" stroke="none" stroke-width="1" stroke-linecap="butt" stroke-linejoin="miter" stroke-miterlimit="10" stroke-dasharray="" stroke-dashoffset="0" font-family="none" font-weight="none" font-size="none" text-anchor="none" style="mix-blend-mode: normal"><g transform="translate(-0.00022,-0.00006) scale(8,8)"><path d="M28.5,32c-0.9289,0.00262 -1.82021,-0.36663 -2.4751,-1.0254l-4.1279,-4.1277c-2.38875,0.5276 -4.87135,-0.33155 -6.42303,-2.22279c-1.55167,-1.89125 -1.90927,-4.49385 -0.92517,-6.73351l0.5879,-1.34l4.1563,4.1564c0.3955,0.37764 1.018,0.37764 1.4135,0c0.18781,-0.18734 0.29341,-0.44168 0.2935,-0.70695c0.00009,-0.26527 -0.10532,-0.51969 -0.293,-0.70715l-4.1562,-4.1565l1.34,-0.5881c2.23976,-0.98393 4.84236,-0.62621 6.73361,0.9255c1.89125,1.55171 2.75046,4.03429 2.22299,6.4231l4.1274,4.1282c1.001,1.00098 1.30046,2.50639 0.75875,3.81425c-0.54172,1.30787 -1.81793,2.16063 -3.23355,2.16065zM22.47,24.5913l4.9693,4.9692c0.59338,0.56695 1.52772,0.56695 2.1211,0c0.28151,-0.28109 0.4397,-0.66258 0.4397,-1.0604c0,-0.39782 -0.15819,-0.77931 -0.4397,-1.0604v0l-4.9692,-4.97l0.188,-0.5823c0.44573,-1.36956 0.20834,-2.86976 -0.63845,-4.03479c-0.84679,-1.16503 -2.20048,-1.85386 -3.64075,-1.85261c-0.084,0 -0.16733,0.00227 -0.25,0.0068l1.8716,1.8721c0.56273,0.5625 0.87889,1.32554 0.87889,2.1212c0,0.79566 -0.31616,1.5587 -0.87889,2.1212c-1.18732,1.13316 -3.05564,1.13294 -4.2427,-0.0005l-1.8716,-1.8715c-0.00487,0.0832 -0.0073,0.16677 -0.0073,0.2507c-0.00119,1.44035 0.68766,2.7941 1.8527,3.64102c1.16505,0.84692 2.66528,1.08449 4.035,0.63898z" fill="#25ffd7"></path><path d="M25,5h-3v-1c-0.00319,-1.10325 -0.89675,-1.99681 -2,-2h-8c-1.10325,0.00319 -1.99681,0.89675 -2,2v1h-3c-1.10325,0.00319 -1.99681,0.89675 -2,2v21c0.00319,1.10325 0.89675,1.99681 2,2h7v-2h-7v-21h3v3h12v-3h3v5h2v-5c-0.00319,-1.10325 -0.89675,-1.99681 -2,-2zM20,8h-8v-4h8z" fill="#25ffd7"></path><rect x="0" y="0" width="32" height="32" id="_Transparent_Rectangle_" fill="none"></rect></g></g></svg>