<svg version="1.1" xmlns="http://www.w3.org/2000/svg" xmlns:xlink="http://www.w3.org/1999/xlink" width="1280.000000pt" height="446.000000pt" viewBox="0,0,256,89.1875"><g fill="#ffffff" fill-rule="nonzero" stroke="none" stroke-width="1" stroke-linecap="butt" stroke-linejoin="miter" stroke-miterlimit="10" stroke-dasharray="" stroke-dashoffset="0" font-family="none" font-weight="none" font-size="none" text-anchor="none" style="mix-blend-mode: normal"><g transform="translate(-0.02654,0.05091) scale(0.2,0.2)"><g transform="translate(0,446) scale(0.1,-0.1)"><path d="M1454,4440c-11,-4 -29,-24 -38,-44c-15,-31 -19,-93 -27,-424c-6,-213 -12,-388 -13,-390c-2,-1 -20,5 -42,14c-52,22 -178,14 -256,-16c-104,-39 -206,-152 -248,-275c-26,-76 -25,-91 8,-124c25,-26 27,-30 14,-50c-8,-11 -23,-21 -34,-21c-27,0 -74,-26 -82,-45c-3,-9 -4,-26 -1,-38c5,-19 -7,-30 -86,-77c-110,-66 -298,-244 -378,-360c-114,-163 -191,-341 -232,-530c-30,-139 -33,-409 -6,-543c100,-497 455,-903 927,-1061c139,-46 256,-66 420,-72l135,-4l31,-145c26,-124 34,-149 59,-175c42,-44 85,-53 166,-34c55,12 74,22 98,50c17,19 34,46 37,61c6,21 -7,100 -33,210c-5,21 -3,21 74,16c65,-4 88,-1 137,17c113,43 197,150 212,270c7,53 11,59 108,160c197,206 317,435 372,715c27,134 24,387 -4,522c-85,399 -328,739 -666,933c-156,89 -354,160 -496,176c-32,3 -63,9 -69,13c-8,5 -7,165 4,594c14,531 14,590 0,625c-9,23 -27,44 -41,51c-14,6 -26,11 -27,10c-1,0 -11,-4 -23,-9zM1500,4375c6,-15 4,-225 -5,-567c-8,-299 -17,-653 -20,-788c-3,-135 -8,-287 -11,-337c-6,-91 -6,-93 -31,-93h-26l7,153c3,83 13,476 22,872c12,574 18,727 29,753c18,38 23,40 35,7zM1324,3546c50,-21 86,-74 86,-126v-42l-27,52c-40,76 -75,93 -180,87c-81,-5 -159,-31 -208,-71c-11,-9 1,-5 27,8c104,53 240,54 296,3c59,-54 95,-181 86,-299c-7,-75 -7,-76 -36,-80c-15,-3 -32,0 -37,6c-5,6 -19,54 -31,106c-12,52 -25,98 -29,103c-4,4 -87,-11 -186,-33c-223,-50 -219,-50 -212,-5c14,85 98,207 173,251c89,52 208,69 278,40zM1261,3170c5,-8 16,-41 25,-72c17,-62 22,-66 82,-49l32,10v-69c0,-65 -1,-68 -26,-74c-25,-7 -26,-10 -21,-50c4,-24 13,-63 22,-87c8,-24 15,-77 15,-116c0,-71 -1,-73 -24,-73c-30,0 -23,-20 -86,265c-55,250 -60,268 -76,257c-7,-5 9,-90 49,-261c46,-200 56,-256 46,-262c-8,-4 -15,-6 -17,-4c-3,2 -30,118 -61,257c-33,147 -60,251 -66,248c-17,-9 -11,-47 63,-367c40,-172 72,-316 72,-320c0,-4 -30,44 -65,107l-65,115l6,116c6,105 4,120 -15,165c-12,27 -36,64 -54,83c-35,36 -139,91 -174,91c-26,0 -38,15 -21,27c17,10 319,82 337,80c8,-1 18,-9 22,-17zM1731,3075c442,-112 794,-440 939,-873c51,-155 64,-241 64,-422c0,-131 -5,-186 -22,-267c-54,-253 -167,-469 -341,-655l-78,-82l-33,63c-38,72 -107,133 -170,152c-37,11 -43,19 -124,172l-85,159l35,44c47,57 67,124 54,175c-8,30 -7,49 6,90c15,44 16,61 6,109c-7,31 -12,92 -12,136c0,80 -11,111 -48,140c-8,6 -22,33 -31,60c-15,45 -21,52 -81,83c-175,90 -194,103 -174,114c66,35 84,84 64,178c-12,57 -12,61 9,83c34,36 41,84 24,168c-12,54 -12,73 -4,76c27,9 51,47 51,79c0,91 -41,163 -94,163c-14,0 -29,13 -44,40c-12,22 -19,40 -15,40c4,0 51,-11 104,-25zM1584,3054c23,-24 30,-43 29,-81c0,-8 14,-10 47,-6l48,6l11,-39c22,-78 13,-94 -56,-107c-23,-5 -33,-3 -33,6c0,8 -4,7 -10,-3c-9,-13 -10,-13 -10,0c0,13 -1,13 -11,0c-8,-12 -9,-9 -5,13c15,69 14,78 -2,29c-9,-30 -21,-53 -26,-52c-5,1 -13,-4 -18,-12c-6,-9 -7,-3 -3,17c15,69 14,77 -2,33c-24,-64 -36,-72 -18,-13c18,62 12,70 -9,13l-16,-43l5,38c4,22 2,37 -5,37c-5,0 -10,9 -10,20c0,14 10,22 38,29c73,19 77,20 35,16c-23,-3 -48,-8 -57,-11c-14,-5 -16,4 -16,65v71h34c23,0 42,-8 60,-26zM975,3036c140,-64 186,-161 154,-329l-10,-57l65,-128c37,-70 66,-129 66,-132c0,-3 -19,-6 -43,-8c-23,-1 -49,-5 -57,-7c-11,-3 -29,23 -64,91c-28,52 -58,100 -68,105c-14,7 -6,-14 28,-78c26,-48 53,-98 61,-111c12,-20 11,-26 -10,-55c-13,-17 -35,-62 -48,-99c-13,-38 -26,-68 -29,-68c-3,0 -43,73 -89,161c-90,171 -90,171 -189,204c-29,9 -65,28 -81,41c-41,34 -72,114 -77,198c-8,113 1,114 99,12c81,-85 86,-89 118,-82c44,8 107,53 131,91c10,17 18,48 18,70c0,37 -6,45 -80,115c-44,42 -80,79 -80,82c0,25 117,15 185,-16zM890,2839c0,-32 -61,-89 -96,-89c-19,0 -134,117 -134,137c0,5 28,25 63,46l62,36l53,-51c37,-38 52,-60 52,-79zM1389,2853l-1,-48l-10,34c-5,18 -7,40 -4,47c10,27 16,14 15,-33zM1674,2739c22,-98 21,-133 -6,-163c-31,-34 -66,-43 -75,-19c-9,26 -23,33 -65,33h-38v89v90l58,16c31,9 62,18 67,20c35,13 43,4 59,-66zM566,2590c35,-65 69,-91 158,-123c37,-14 72,-29 76,-34c14,-15 170,-312 170,-323c0,-26 -37,-78 -90,-130c-96,-93 -144,-214 -139,-351l3,-80l-64,-55c-36,-31 -108,-84 -160,-119c-104,-70 -320,-179 -332,-167c-11,11 -48,109 -74,196c-56,187 -68,441 -29,631c53,257 181,500 361,682l67,68l13,-72c6,-39 25,-95 40,-123zM1568,2564c8,-2 12,-15 10,-31c-4,-34 -27,-38 -175,-28l-103,7v27c0,15 3,30 6,34c6,6 239,-1 262,-9zM1647,2464c17,-67 16,-91 -6,-113c-18,-18 -97,-38 -108,-27c-3,3 -2,39 2,81c6,64 9,75 25,75c13,0 22,-11 29,-37c6,-21 11,-44 11,-51c0,-8 6,-12 13,-9c14,4 15,55 3,106c-6,26 -5,32 5,29c7,-2 19,-27 26,-54zM1526,2473c-3,-10 -8,-50 -12,-90l-6,-71l-32,5c-18,3 -48,-2 -70,-11c-21,-9 -41,-16 -45,-16c-3,0 -7,45 -8,100l-1,100h90c80,0 89,-2 84,-17zM1329,2438c-1,-37 -2,-39 -9,-18c-12,36 -12,60 0,60c6,0 10,-19 9,-42zM1265,2350c3,-5 -4,-11 -17,-11c-19,-1 -17,-3 7,-8c27,-6 45,-28 67,-84c2,-5 28,3 58,17c79,37 103,34 195,-25c44,-28 119,-70 167,-95c94,-47 110,-65 106,-116c-3,-28 1,-34 20,-36c38,-6 56,-45 49,-110c-3,-31 -1,-88 6,-125c9,-55 9,-70 -2,-76c-19,-12 -25,-85 -11,-135c16,-58 2,-100 -53,-160l-43,-45l101,-190c92,-174 102,-190 131,-195c48,-10 120,-62 153,-113c121,-183 -8,-418 -228,-417c-83,1 -146,29 -201,92c-65,73 -84,165 -54,258l15,49l-170,319c-94,176 -171,321 -171,322c0,9 70,10 134,0l78,-11l119,-220c65,-121 118,-232 119,-247c0,-17 -8,-33 -22,-42l-22,-16h25c30,0 49,17 49,45c0,11 -54,122 -120,247c-66,124 -120,230 -120,234c0,5 22,19 48,32c26,12 38,19 27,16c-61,-18 -143,-24 -171,-13c-16,7 -41,11 -56,10c-38,-3 -67,15 -83,52l-14,32l-1,-28c0,-16 5,-38 11,-50c12,-21 12,-21 -17,-3c-16,10 -35,25 -41,34c-12,14 -13,14 -13,-4c0,-11 7,-30 16,-42c21,-31 10,-42 -44,-42c-38,0 -52,5 -79,32c-46,44 -43,74 10,140c48,60 95,88 148,88c20,0 90,-13 155,-30c65,-16 119,-28 122,-26c6,7 -121,44 -228,67c-58,13 -111,29 -117,38c-11,13 -13,12 -13,-5c0,-10 -29,-49 -63,-86c-34,-36 -61,-71 -59,-77c2,-6 -3,-11 -11,-11c-23,0 -51,82 -43,124c9,48 89,151 140,181c54,31 95,32 193,0c42,-13 79,-23 81,-21c5,6 -117,45 -173,55c-62,11 -96,-1 -158,-58c-51,-47 -64,-50 -77,-18c-12,29 -13,5 -1,-26c12,-30 3,-41 -17,-24c-14,10 -14,9 -7,-8c5,-11 8,-31 7,-45c-7,-114 -8,-121 -34,-143c-14,-12 -32,-33 -38,-47c-11,-23 -9,-22 22,8c19,17 41,32 49,32c21,0 44,-27 58,-70c6,-19 24,-47 38,-63c27,-27 27,-30 24,-142l-3,-115l30,-30c26,-25 38,-30 81,-30c37,0 51,-4 51,-14c0,-8 3,-21 6,-29c4,-11 -5,-19 -33,-26c-58,-17 -114,-13 -151,9c-36,22 -59,25 -82,10c-11,-7 -6,-8 16,-4c23,4 40,-1 69,-20c21,-14 33,-26 28,-26c-16,0 -238,-149 -400,-268c-84,-62 -158,-112 -164,-112c-22,0 -123,83 -216,177c-78,79 -214,261 -225,300c-2,8 37,31 94,56c136,62 271,147 385,243l98,82l32,-36c36,-43 35,-47 -30,-127l-40,-50l52,50c66,64 71,82 33,134c-89,123 -51,332 85,468c57,57 88,114 133,245c37,107 87,154 167,157c12,1 25,-3 28,-9zM1308,1296c2,-39 7,-64 12,-61c6,4 10,17 10,31c0,37 27,94 44,94c26,0 46,-54 46,-125v-65h-61c-54,0 -64,3 -90,29c-28,28 -29,34 -29,115v86l33,-19c31,-17 32,-21 35,-85zM1691,611c54,-239 96,-438 93,-443c-3,-4 -12,-8 -21,-8c-13,0 -13,3 -3,15c20,24 4,84 -26,97c-21,10 -28,8 -46,-10c-18,-18 -20,-26 -12,-54c6,-18 20,-38 33,-45c24,-11 24,-12 -12,-18c-20,-4 -40,-4 -46,0c-7,3 -8,0 -5,-9c4,-9 18,-16 33,-16c44,1 124,25 134,41c9,14 -24,187 -60,324l-5,20l20,-20c25,-25 88,-299 78,-339c-9,-36 -43,-55 -112,-62c-95,-10 -86,-34 -216,541l-113,500l70,5l70,5l24,-45c16,-30 56,-186 122,-479zM1424,745c32,-146 61,-275 64,-287c5,-21 4,-21 -129,-15c-155,8 -246,24 -379,68c-112,37 -256,107 -244,119c37,33 359,261 452,320c45,28 123,55 167,59c6,1 36,-118 69,-264zM1710,816c0,-11 -4,-27 -9,-34c-5,-9 -12,8 -20,48c-7,34 -15,69 -18,79c-3,9 7,-4 21,-28c14,-23 26,-53 26,-65z"></path><path d="M1565,2860c-4,-17 -5,-34 -2,-36c2,-3 7,10 11,27c8,42 0,50 -9,9z"></path><path d="M1611,2864c0,-11 3,-14 6,-6c3,7 2,16 -1,19c-3,4 -6,-2 -5,-13z"></path><path d="M1445,2168c5,-34 4,-38 -17,-39c-13,-1 -27,-1 -31,0c-5,1 -7,-4 -5,-11c3,-8 31,-15 74,-19c38,-3 87,-13 109,-23c22,-9 35,-12 29,-6c-5,5 -36,20 -69,33c-32,12 -61,29 -66,37c-4,8 -12,26 -18,40c-10,23 -11,21 -6,-12z"></path><path d="M1243,2144c-8,-20 25,-92 51,-110c11,-8 32,-14 46,-13c23,1 22,2 -7,10c-53,15 -104,100 -72,120c11,7 11,9 1,9c-7,0 -15,-7 -19,-16z"></path><path d="M1133,2073c-10,-32 -9,-35 1,-20c13,16 15,16 31,-9c16,-25 16,-27 -6,-50c-30,-32 -37,-30 -42,9l-4,32l-1,-37c-2,-47 9,-54 38,-23c29,31 47,31 77,3c17,-16 38,-22 80,-24l58,-3l-48,9c-71,13 -107,42 -162,135c-8,14 -12,10 -22,-22z"></path><path d="M948,1359c26,-27 18,-36 -198,-212l-35,-28l35,22c48,31 226,167 238,182c8,9 2,17 -21,30c-18,10 -26,13 -19,6z"></path><path d="M1904,836c-109,-48 -118,-217 -14,-279c68,-41 144,-30 200,28c30,31 35,43 38,98c3,52 0,67 -20,96c-44,64 -131,88 -204,57zM2046,766c58,-58 42,-141 -33,-173c-69,-28 -143,23 -143,99c0,55 51,108 105,108c29,0 45,-8 71,-34z"></path><path d="M3430,2795v-35h55h54l3,-147l3,-148l42,-3l42,-3l3,148l3,148l53,3l52,3v35v34h-155h-155z"></path><path d="M3862,2818c-33,-16 -44,-70 -40,-197c3,-110 4,-113 32,-138c28,-24 33,-24 147,-21c160,4 154,-3 154,184c0,187 3,184 -159,183c-61,0 -121,-5 -134,-11zM4065,2645v-110l-65,-3c-83,-4 -90,5 -90,111c0,111 6,119 88,115l67,-3z"></path><path d="M4270,2646v-186h45h45v55v55h80c97,0 126,12 141,58c18,53 7,148 -19,175c-21,20 -34,22 -157,25l-135,4zM4490,2741c14,-26 13,-74 -2,-89c-7,-7 -38,-12 -70,-12h-58v60v60h60c48,0 61,-4 70,-19z"></path><path d="M4735,2823c-50,-12 -74,-68 -61,-139c12,-62 34,-74 131,-74c93,0 103,-6 91,-56l-7,-27l-105,5l-104,5v-32c0,-30 3,-33 38,-39c20,-3 78,-6 128,-6c115,0 134,12 142,88c6,63 -12,110 -45,123c-13,5 -55,9 -93,9c-59,0 -71,3 -80,20c-8,14 -8,26 0,40c9,18 21,20 100,20h90v35v35l-102,-1c-57,-1 -112,-4 -123,-6z"></path><path d="M5090,2645v-186l143,3l142,3l3,33l3,32h-100h-101v40v39l78,3l77,3l3,33l3,32h-80h-81v40v40h100h100v35v35h-145h-145z"></path><path d="M5470,2645v-185h45h45v55v55h39c37,0 41,-3 71,-55c31,-54 33,-55 76,-55c24,0 44,4 44,9c0,5 -12,29 -26,55l-26,47l26,24c24,22 26,31 26,100c0,42 -4,85 -10,95c-16,29 -66,40 -191,40h-119zM5684,2754c11,-4 16,-19 16,-50c0,-53 -19,-66 -88,-62l-47,3l-3,44c-5,64 0,71 57,71c27,0 56,-3 65,-6z"></path><path d="M5881,2778c11,-29 40,-105 64,-168c24,-63 46,-123 50,-133c6,-15 17,-17 58,-15l51,3l68,180c37,99 68,181 68,183c0,1 -22,2 -49,2h-49l-43,-125c-24,-69 -46,-122 -50,-117c-4,4 -25,59 -47,122l-40,115l-51,3l-51,3z"></path><path d="M6307,2823c-4,-3 -7,-19 -7,-35c0,-23 4,-28 25,-28h25v-115v-115h-26c-23,0 -25,-3 -22,-32l3,-33l93,-3l92,-3v35c0,28 -4,35 -22,38c-22,3 -23,7 -23,113c0,106 1,110 23,113c18,3 22,10 22,38v34h-88c-49,0 -92,-3 -95,-7z"></path><path d="M6623,2815c-30,-13 -35,-20 -47,-75c-6,-30 8,-98 24,-114c6,-6 52,-13 103,-16l92,-5v-35v-35h-107l-108,1v-32c0,-29 3,-32 38,-38c20,-3 79,-6 130,-6c85,0 95,2 117,25c21,20 25,34 25,83c0,92 -16,106 -127,112l-88,5l-3,29c-2,16 2,32 10,37c7,5 50,9 96,9h82v35v35h-102c-65,-1 -115,-6 -135,-15z"></path><path d="M7290,2646v-186h45h45v55v55h79c44,0 91,4 104,9c35,13 50,60 45,136c-6,103 -17,109 -183,113l-135,4zM7508,2748c13,-13 16,-66 6,-92c-5,-12 -21,-16 -70,-16h-64v60v60h58c32,0 63,-5 70,-12z"></path><path d="M7710,2646v-186h45h45v55v55h39c38,0 41,-3 68,-52c27,-51 29,-53 76,-56c26,-2 47,1 47,5c0,4 -13,30 -28,57l-28,48l28,28c25,26 28,35 28,99c0,59 -4,74 -24,98c-24,28 -25,28 -160,31l-136,4zM7928,2748c7,-7 12,-29 12,-50c0,-46 -22,-60 -88,-56l-47,3l-3,58l-3,57h59c32,0 63,-5 70,-12z"></path><path d="M8229,2803c-12,-32 -55,-147 -99,-263l-29,-80h48c48,0 50,1 61,35l12,35h67h67l13,-35c12,-34 14,-35 62,-35c27,0 49,1 49,3c0,1 -31,83 -69,182l-68,180l-52,3c-48,3 -52,1 -62,-25zM8313,2657c9,-30 17,-57 17,-60c0,-4 -18,-7 -40,-7c-22,0 -40,3 -40,7c0,16 34,113 40,113c3,0 14,-24 23,-53z"></path><path d="M8560,2645v-185h45h45v75v75h65h64l3,-72l3,-73h45h45v180v180l-47,3l-48,3v-75v-76h-65h-65v75v75h-45h-45z"></path><path d="M9026,2653c-36,-98 -66,-181 -66,-185c0,-5 20,-8 46,-8c42,0 46,2 60,35c14,35 14,35 79,35c65,0 65,0 79,-35c14,-33 18,-35 60,-35c26,0 46,3 46,7c0,4 -30,87 -67,185l-68,178h-51h-51zM9177,2619c5,-28 4,-29 -29,-29c-19,0 -37,3 -41,6c-5,5 8,52 29,104c7,17 31,-30 41,-81z"></path><path d="M9634,2820c-46,-18 -54,-46 -54,-183c0,-122 1,-129 25,-152c22,-23 32,-25 107,-25c46,0 100,3 121,6c34,6 37,10 37,38v31h-97h-98l-3,99c-2,64 1,103 9,112c8,10 36,14 100,14h89v35v35l-107,-1c-60,0 -118,-4 -129,-9z"></path><path d="M9940,2795v-35h90c50,0 90,-3 90,-6c0,-3 -40,-55 -90,-114c-77,-92 -90,-113 -90,-144v-36h150h150v35v35h-90c-49,0 -90,3 -90,6c0,3 41,55 90,114c77,92 90,113 90,144v36h-150h-150z"></path><path d="M6980,2645v-35h105h105v35v35h-105h-105z"></path><path d="M9400,2500v-40h45h45v40v40h-45h-45z"></path><path d="M6932,2031c29,-38 66,-40 98,-6c30,32 18,45 -22,22c-28,-16 -32,-16 -48,-2c-9,8 -24,15 -34,15c-15,0 -15,-4 6,-29z"></path><path d="M9082,2030c15,-21 30,-30 49,-30c19,0 34,9 49,30c19,27 20,30 4,30c-10,0 -26,-7 -36,-17c-17,-15 -19,-15 -36,0c-10,10 -26,17 -36,17c-14,0 -14,-4 6,-30z"></path><path d="M11410,2052c0,-18 47,-52 71,-51c30,0 82,59 53,59c-10,0 -25,-7 -35,-16c-16,-15 -20,-15 -41,0c-24,17 -48,21 -48,8z"></path><path d="M11950,2052c0,-18 47,-52 71,-51c30,0 82,59 53,59c-10,0 -25,-7 -35,-16c-16,-15 -20,-15 -41,0c-24,17 -48,21 -48,8z"></path><path d="M6930,1953c-50,-26 -75,-75 -75,-148c1,-102 47,-155 134,-155c51,0 71,8 71,29c0,13 -9,15 -53,13c-45,-3 -55,0 -75,21c-43,46 -41,149 3,193c26,25 72,32 105,14c14,-7 20,-6 24,7c9,24 -6,35 -56,40c-29,3 -54,-2 -78,-14z"></path><path d="M9081,1953c-48,-25 -70,-60 -78,-121c-12,-106 43,-182 134,-182c53,0 73,8 73,29c0,15 -8,17 -52,13c-47,-3 -56,-1 -77,22c-48,51 -37,176 18,206c25,13 67,13 91,0c14,-7 20,-6 24,7c9,24 -6,35 -56,40c-29,3 -54,-2 -77,-14z"></path><path d="M11433,1960c-34,-14 -56,-54 -48,-89c7,-35 28,-54 86,-84c47,-24 61,-55 38,-84c-11,-12 -26,-14 -71,-10c-51,4 -58,3 -58,-13c0,-21 27,-30 88,-30c35,0 49,6 73,29c52,52 34,105 -52,151c-46,24 -59,36 -59,54c0,35 23,48 76,44c54,-3 72,16 29,32c-32,12 -72,12 -102,0z"></path><path d="M11961,1952c-48,-26 -71,-74 -71,-145c0,-101 47,-157 131,-157c59,0 79,7 79,29c0,15 -8,17 -53,13c-41,-3 -57,0 -75,14c-50,41 -47,158 4,203c24,20 34,22 75,17c36,-5 48,-3 52,8c8,20 -3,26 -60,32c-36,4 -57,0 -82,-14z"></path><path d="M3624,1931c-84,-51 -85,-210 -2,-261c68,-41 159,-16 191,53c23,48 22,124 -3,164c-37,61 -124,82 -186,44zM3745,1904c45,-49 45,-165 0,-210c-61,-61 -135,-1 -135,111c0,105 77,161 135,99z"></path><path d="M3967,1943c-26,-4 -26,-6 -12,-26c20,-29 21,-191 1,-229c-8,-15 -12,-29 -8,-32c8,-8 63,-6 86,3c18,7 18,8 3,14c-13,5 -17,19 -17,52v45l42,7c51,8 98,50 98,87c0,14 -10,37 -23,51c-18,22 -32,27 -82,30c-33,2 -72,1 -88,-2zM4102,1897c25,-40 -6,-97 -54,-97c-28,0 -28,1 -28,59c0,38 4,61 13,64c16,5 59,-11 69,-26z"></path><path d="M4277,1943c-3,-5 -2,-15 4,-23c5,-8 9,-62 9,-119c0,-82 -3,-108 -16,-122c-15,-17 -15,-18 9,-24c38,-10 73,-2 68,15c-2,8 -6,36 -9,63c-4,42 -2,47 15,47c24,0 44,-21 71,-76c22,-43 44,-56 75,-45c17,6 17,8 -3,26c-12,11 -33,39 -47,62l-25,43l26,31c32,38 33,60 3,95c-21,24 -32,27 -99,32c-41,2 -78,0 -81,-5zM4408,1914c26,-18 30,-65 6,-88c-8,-9 -29,-16 -45,-16c-28,0 -29,1 -29,54c0,66 22,83 68,50z"></path><path d="M4722,1938c-5,-7 -28,-65 -51,-128c-23,-63 -48,-120 -56,-126c-24,-18 -18,-24 23,-24c37,0 37,0 37,42v43l49,3c55,4 66,-5 66,-55c0,-32 1,-33 45,-33c25,0 45,5 45,10c0,6 -4,10 -8,10c-11,0 -26,33 -69,150c-43,119 -57,137 -81,108zM4769,1783c1,-15 -65,-18 -73,-4c-3,5 0,24 8,42c7,19 16,43 21,54c6,17 10,12 25,-30c10,-27 19,-56 19,-62z"></path><path d="M4942,1943c-10,-4 -10,-9 3,-23c9,-10 36,-71 61,-136c25,-66 49,-123 55,-129c15,-15 27,6 75,131c25,65 52,126 60,135c13,15 13,17 -7,22c-28,8 -51,-2 -45,-20c8,-19 -54,-208 -64,-197c-14,16 -52,128 -59,174c-6,41 -9,45 -36,47c-17,1 -36,-1 -43,-4z"></path><path d="M5307,1943c-16,-4 -15,-8 8,-35c35,-41 85,-142 85,-170c0,-13 -7,-36 -15,-52c-8,-15 -15,-30 -15,-32c0,-2 23,-4 50,-4c28,0 50,2 50,4c0,2 -7,17 -15,32c-8,16 -15,38 -15,49c0,28 52,134 84,172l27,32l-25,7c-33,8 -46,-1 -46,-34c0,-15 -11,-44 -23,-65c-18,-30 -26,-36 -34,-25c-22,27 -43,78 -43,103c0,21 -4,25 -27,24c-16,-1 -36,-3 -46,-6z"></path><path d="M5847,1943c-26,-4 -26,-6 -12,-26c20,-29 21,-191 1,-229c-8,-15 -12,-29 -8,-32c8,-8 63,-6 86,3c18,7 18,8 3,14c-13,5 -17,19 -17,52v45l42,7c51,8 98,50 98,87c0,14 -10,37 -23,51c-18,22 -32,27 -82,30c-33,2 -72,1 -88,-2zM5982,1897c25,-40 -6,-97 -54,-97c-28,0 -28,1 -28,59c0,38 4,61 13,64c16,5 59,-11 69,-26z"></path><path d="M6157,1943c-3,-5 -2,-15 4,-23c5,-8 9,-62 9,-119c0,-82 -3,-108 -16,-122c-15,-17 -15,-18 9,-24c38,-10 73,-2 68,15c-3,8 -7,36 -9,63c-3,41 -2,47 15,47c24,0 44,-21 71,-76c22,-43 44,-56 75,-45c17,6 17,8 -3,26c-12,11 -33,39 -47,62l-25,43l26,31c32,38 33,60 3,95c-21,24 -32,27 -99,32c-41,2 -78,0 -81,-5zM6288,1914c26,-18 30,-65 6,-88c-8,-9 -29,-16 -45,-16c-28,0 -29,1 -29,54c0,66 22,83 68,50z"></path><path d="M6602,1938c-5,-7 -28,-65 -51,-128c-23,-63 -48,-120 -56,-126c-24,-18 -18,-24 23,-24c37,0 37,0 37,42v43l49,3c55,4 66,-5 66,-55c0,-32 1,-33 45,-33c25,0 45,5 45,10c0,6 -4,10 -9,10c-10,0 -44,76 -77,174c-32,92 -49,112 -72,84zM6649,1782c1,-9 -10,-12 -36,-10c-43,3 -46,15 -17,83l17,40l18,-50c9,-27 18,-56 18,-63z"></path><path d="M7216,1941c-44,-5 -47,-8 -33,-20c25,-20 25,-222 1,-242c-15,-12 -14,-14 7,-20c31,-9 137,-9 169,0c16,4 26,15 28,30c3,22 3,22 -27,7c-36,-19 -82,-21 -99,-4c-7,7 -12,29 -12,50c0,43 20,59 51,40c30,-19 39,-14 39,21c0,43 -9,51 -31,31c-28,-25 -54,-14 -57,24c-2,18 2,40 9,48c15,19 69,18 97,-2c21,-14 22,-14 22,6c0,36 -47,45 -164,31z"></path><path d="M7507,1944c-3,-4 0,-16 8,-28c21,-30 21,-218 0,-236c-22,-18 -9,-30 34,-30h39l-6,65c-4,54 -2,65 11,65c21,0 67,-57 74,-91c4,-23 12,-30 39,-35c53,-10 59,3 20,46c-19,22 -47,57 -61,79c-31,47 -28,57 39,119c45,41 45,42 21,48c-34,8 -55,-1 -55,-26c0,-28 -73,-106 -89,-96c-13,9 -6,82 10,102c5,6 6,14 2,17c-8,9 -78,9 -86,1z"></path><path d="M8666,1941c-13,-5 -16,-10 -8,-15c6,-4 30,-38 52,-76c32,-55 40,-78 40,-119c0,-27 -4,-53 -10,-56c-23,-14 -7,-25 40,-25c51,0 61,8 35,30c-36,30 -2,147 64,222l31,36l-24,6c-34,8 -55,-2 -49,-23c5,-18 -28,-95 -45,-105c-10,-6 -57,87 -57,113c0,18 -38,25 -69,12z"></path><path d="M9367,1943c-46,-4 -47,-5 -32,-26c21,-30 21,-204 0,-234c-14,-19 -13,-21 17,-27c39,-8 125,-6 158,3c16,4 26,15 28,30c3,22 3,22 -27,7c-36,-19 -82,-21 -99,-4c-7,7 -12,29 -12,50c0,43 20,59 51,40c30,-19 39,-14 39,21c0,43 -9,51 -31,31c-28,-25 -54,-14 -57,24c-2,18 2,40 9,48c15,18 56,18 92,0c25,-14 27,-13 27,5c0,12 -10,23 -26,29c-25,10 -42,10 -137,3z"></path><path d="M9657,1944c-4,-4 -1,-14 5,-22c7,-8 14,-56 16,-113c3,-78 1,-104 -11,-123c-19,-29 -14,-36 29,-36c40,0 46,8 35,47c-11,38 -3,83 15,83c18,0 74,-77 74,-101c0,-13 10,-20 34,-25c55,-10 62,4 23,45c-48,50 -87,105 -87,122c0,7 23,37 52,66c41,42 48,54 35,58c-27,11 -52,1 -55,-22c-2,-12 -20,-41 -41,-64c-44,-50 -67,-47 -57,10c12,80 14,76 -24,79c-20,2 -39,0 -43,-4z"></path><path d="M10287,1928c-8,-13 -29,-67 -47,-120c-18,-54 -41,-106 -52,-117c-25,-28 -23,-31 20,-31c37,0 37,0 37,42v43l49,3c55,4 66,-5 66,-55c0,-32 1,-33 44,-33h45l-24,43c-13,23 -37,82 -55,131c-42,121 -56,137 -83,94zM10339,1783c1,-9 -13,-13 -40,-13c-38,0 -41,2 -35,23c3,13 13,41 22,63l17,39l18,-50c9,-27 18,-56 18,-62z"></path><path d="M10765,1938c-30,-16 -45,-39 -45,-68c0,-31 28,-59 87,-89c50,-25 68,-52 53,-80c-21,-40 -65,-35 -116,11c-25,22 -34,14 -27,-23c4,-22 12,-28 41,-33c70,-11 93,-7 123,23c53,54 33,104 -62,150c-58,29 -72,56 -44,85c23,23 49,20 85,-10c35,-30 44,-28 35,9c-5,19 -15,26 -43,31c-50,8 -64,7 -87,-6z"></path><path d="M11023,1944c-10,-4 -10,-11 2,-27c11,-15 15,-48 15,-115c0,-90 1,-95 29,-123c34,-33 92,-39 140,-14c38,19 42,33 48,145c4,61 10,101 20,111c12,14 12,17 -2,23c-9,3 -28,6 -42,6c-22,0 -24,-3 -18,-22c4,-13 9,-55 12,-95c6,-88 -9,-140 -45,-154c-36,-14 -80,6 -89,40c-9,30 -10,128 -3,186c5,39 4,40 -25,42c-16,1 -36,0 -42,-3z"></path><path d="M11670,1941c0,-5 7,-14 15,-21c12,-10 15,-37 15,-120c0,-83 -3,-110 -15,-120c-27,-22 -16,-30 40,-30c59,0 63,3 40,26c-11,12 -15,41 -15,123c0,84 3,111 15,121c27,22 16,30 -40,30c-30,0 -55,-4 -55,-9z"></path><path d="M12258,1941c-39,-5 -46,-9 -38,-21c14,-22 13,-223 -2,-238c-19,-19 -1,-26 75,-30c77,-4 124,8 133,33c10,24 -2,29 -28,11c-12,-9 -40,-16 -60,-16c-32,0 -40,4 -48,26c-26,66 0,101 52,71l28,-16v44v44l-30,-17c-28,-16 -30,-16 -46,0c-14,14 -15,23 -8,50c9,30 13,33 49,32c22,-1 50,-5 62,-9c18,-6 21,-4 16,13c-8,31 -45,37 -155,23z"></path><path d="M12547,1944c-3,-4 -2,-15 4,-26c10,-18 9,-217 -1,-248c-4,-12 4,-15 35,-15c31,0 39,3 36,15c-3,8 -6,34 -9,57c-3,34 0,44 14,50c21,8 58,-34 75,-85c11,-34 42,-49 77,-38c17,6 15,11 -24,53c-23,26 -52,64 -64,85l-21,37l56,55c53,54 54,56 30,62c-34,8 -48,2 -52,-26c-4,-25 -69,-100 -86,-100c-8,0 -6,77 4,110c3,11 -5,16 -31,18c-20,2 -39,0 -43,-4z"></path><path d="M8220,1931c0,-6 5,-13 10,-16c17,-11 12,-207 -6,-233c-15,-21 -14,-22 18,-22h33l-3,107c-2,68 0,104 6,98c5,-5 26,-52 47,-103c21,-51 43,-91 49,-89c5,2 28,47 51,100c22,53 43,99 48,103c10,11 9,-160 -2,-189c-9,-22 -7,-25 16,-30c14,-2 34,-2 44,0c16,5 17,8 7,20c-20,24 -23,195 -5,232l15,31h-33c-40,0 -48,-9 -90,-105c-18,-42 -37,-77 -41,-77c-5,-1 -24,34 -42,77c-18,44 -38,85 -44,92c-12,15 -78,18 -78,4z"></path><path d="M7875,1690c-3,-5 0,-18 7,-29c9,-15 9,-25 0,-46c-10,-21 -10,-26 0,-23c21,7 50,66 43,88c-7,21 -39,28 -50,10z"></path></g></g></g></svg>