<svg version="1.1" xmlns="http://www.w3.org/2000/svg" xmlns:xlink="http://www.w3.org/1999/xlink" width="529.000000pt" height="430.000000pt" viewBox="0,0,256,208.07813"><g fill="#ffffff" fill-rule="nonzero" stroke="none" stroke-width="1" stroke-linecap="butt" stroke-linejoin="miter" stroke-miterlimit="10" stroke-dasharray="" stroke-dashoffset="0" font-family="none" font-weight="none" font-size="none" text-anchor="none" style="mix-blend-mode: normal"><g transform="translate(-1.20214,0.03512) scale(0.48393,0.48393)"><g transform="translate(0,430) scale(0.1,-0.1)"><path d="M4375,4103c-11,-3 -41,-14 -67,-25c-38,-16 -48,-25 -48,-45c0,-34 23,-38 73,-14c131,63 304,42 535,-65c42,-19 77,-32 79,-30c7,7 -158,102 -233,134c-38,17 -90,36 -115,41c-44,11 -187,13 -224,4z"></path><path d="M4177,3984c-20,-21 -50,-63 -65,-93c-16,-31 -40,-74 -55,-96c-15,-22 -30,-55 -33,-74c-8,-39 -46,-69 -161,-129c-118,-61 -393,-170 -393,-155c0,3 -6,0 -14,-6c-10,-8 -119,-51 -131,-51c-1,0 -5,26 -8,58c-8,76 -32,153 -57,185c-28,35 -134,86 -194,93c-68,8 -124,-16 -179,-74l-44,-48l-38,25c-44,30 -151,41 -208,22c-46,-16 -121,-82 -153,-136l-25,-44l-37,22c-78,46 -192,16 -278,-75c-48,-50 -97,-140 -88,-162c5,-13 -1,-16 -28,-16c-136,0 -261,-131 -291,-304l-11,-66l-96,-29c-145,-45 -262,-65 -387,-65c-61,0 -111,-3 -111,-6c2,-20 -6,-18 -39,10c-112,99 -289,130 -478,84c-124,-30 -327,-130 -360,-176c-19,-28 -19,-62 0,-78c18,-15 19,-7 3,20c-20,32 -1,50 118,110c300,152 552,143 719,-25c70,-70 125,-171 157,-290c16,-63 21,-111 22,-225c1,-179 -22,-272 -87,-346c-39,-45 -43,-69 -12,-81c10,-3 29,7 52,28l36,34l-19,-34c-53,-94 -169,-173 -274,-185c-142,-16 -395,58 -494,145c-20,17 -40,28 -46,24c-6,-4 -10,7 -10,27c0,18 -3,56 -6,84l-7,52l84,6c228,19 334,36 351,57c48,57 84,222 69,316c-11,73 -58,189 -103,258c-41,61 -70,69 -213,61c-170,-11 -295,-32 -310,-53c-23,-30 -17,-57 21,-94c33,-32 39,-34 95,-32c32,1 74,6 92,12c17,6 57,13 87,16c30,2 85,7 122,11c62,5 69,4 91,-18c71,-71 93,-248 48,-386c-13,-40 -28,-75 -34,-79c-6,-4 -88,-12 -183,-19c-103,-7 -181,-17 -195,-25c-13,-8 -35,-14 -49,-14c-36,0 -37,-31 -1,-117c17,-40 31,-80 31,-89c0,-56 235,-167 404,-189c241,-33 418,78 497,310c20,61 34,84 70,117c43,40 235,173 249,173c4,0 10,-57 13,-127c3,-80 15,-176 32,-256c26,-126 110,-422 140,-494c12,-27 17,-86 20,-218c7,-282 24,-667 31,-697c20,-90 31,34 39,432c2,151 8,236 15,238c5,2 10,0 10,-5c0,-15 78,-13 90,3c7,8 19,14 26,14c8,0 19,11 25,23c10,21 16,23 59,19c52,-5 132,25 180,67c19,17 20,20 5,13c-37,-18 -174,-44 -194,-37c-34,11 -24,29 26,47c51,19 182,115 183,135c0,29 -24,20 -73,-26c-58,-55 -109,-81 -157,-81c-19,0 -30,-5 -30,-14c0,-22 -64,-15 -68,8c-3,13 -9,16 -25,11c-90,-28 -97,-19 -157,200c-28,99 -61,239 -75,310c-26,128 -48,357 -39,392c3,10 17,23 32,29c69,27 99,36 123,38c14,2 31,6 38,10c11,7 45,11 123,16c10,1 23,9 30,18c20,26 48,24 48,-2c0,-29 10,-39 27,-25c10,9 13,8 13,-2c0,-8 9,-1 19,15l19,29l4,-24c3,-23 5,-22 23,11l20,35l3,-27c5,-39 18,-35 42,15c20,40 20,41 1,17c-22,-28 -33,-25 -24,8c10,40 56,23 65,-23c5,-28 54,-29 97,-2l35,21l-23,-37c-25,-41 -24,-42 14,-27c23,9 25,8 15,-9c-27,-51 -1,-40 77,32l67,62l-38,-55c-22,-30 -30,-47 -18,-37c11,10 33,37 48,59c41,58 124,95 109,48c-9,-28 8,-25 46,7c18,16 40,27 49,25c9,-1 23,4 30,13c11,13 15,13 41,-2c23,-14 27,-21 22,-45c-7,-37 20,-38 59,-1c22,21 28,23 28,10c0,-9 7,-17 15,-17c9,0 15,-9 15,-23c0,-34 18,-49 44,-35c15,8 21,8 24,-1c3,-8 12,-5 27,9c13,12 21,28 19,34c-3,7 9,40 27,74l31,61l36,-36c46,-44 106,-73 152,-72c34,1 33,1 -20,20c-30,11 -73,34 -95,53l-39,33l14,42c7,22 19,41 27,41c7,0 16,14 20,30c5,29 8,30 37,24c35,-7 33,-7 64,-5c34,2 26,18 -13,25c-26,5 -39,14 -45,32c-15,38 -12,45 14,38c14,-3 32,-2 42,4c14,8 12,10 -12,16c-35,9 -54,24 -54,43c0,10 6,12 20,8c34,-11 125,14 150,40c27,29 25,30 -23,10c-127,-53 -325,38 -386,177c-13,29 -41,90 -63,136c-30,64 -38,93 -36,125l3,42l22,-41c84,-157 343,-227 343,-92v32l-33,-32c-53,-52 -86,-45 -161,31c-40,40 -70,81 -83,115l-22,52h23c13,0 51,-19 86,-42c130,-89 147,-98 205,-114c33,-9 115,-19 182,-23c139,-7 164,-18 198,-87c27,-55 32,-254 11,-499c-24,-275 -31,-310 -70,-340c-18,-14 -43,-48 -56,-75c-21,-45 -25,-49 -32,-31c-13,35 -41,24 -78,-32c-57,-86 -150,-208 -209,-276c-60,-68 -208,-201 -224,-201c-5,0 1,9 14,20l24,19l-55,-1c-49,-1 -51,-1 -20,-8l35,-7l-40,-17c-22,-9 -51,-21 -65,-27c-23,-10 -24,-12 -7,-24c16,-12 14,-15 -28,-39c-52,-31 -51,-49 3,-41c33,5 34,4 15,-6c-13,-7 -24,-17 -25,-23c0,-6 -2,-16 -2,-22c-2,-20 -33,-42 -62,-46c-21,-2 -29,-8 -29,-23c0,-30 42,-46 113,-42c62,3 62,3 62,-24c0,-15 -4,-31 -10,-34c-5,-3 -10,-1 -10,5c0,6 -12,3 -27,-7c-21,-14 -52,-19 -138,-20c-60,-2 -139,-4 -175,-5c-49,-2 -87,4 -154,26c-94,31 -118,29 -124,-12c-5,-33 36,-52 162,-75l116,-21l67,22c37,12 69,20 71,17c2,-2 -8,-19 -22,-38c-14,-19 -26,-41 -26,-50c0,-8 -6,-18 -12,-21c-7,-3 -3,-3 9,0c14,3 21,0 19,-8c-5,-38 -40,-52 -49,-19c-7,29 -40,43 -63,27c-18,-13 -18,-18 -2,-117c17,-107 27,-187 53,-440c16,-157 44,-283 68,-307c13,-13 19,-12 46,4c17,10 31,21 31,24c0,3 25,31 55,62c46,47 55,62 55,92c0,24 -6,38 -18,45c-33,18 -13,101 25,101c11,0 11,-4 3,-20c-7,-12 -7,-20 -1,-20c5,0 13,9 16,20c4,11 31,36 61,55c76,49 67,60 -15,18c-100,-51 -111,-35 -17,25c44,28 81,50 83,48c2,-2 17,-59 33,-127c39,-160 48,-182 49,-109c2,151 -52,600 -74,616c-26,20 -19,113 19,232c19,59 39,126 45,149c10,35 37,65 177,199c179,171 237,246 332,431c51,100 62,136 42,148c-6,4 -4,15 6,30c29,44 80,338 91,523c3,59 11,110 17,114c26,18 117,47 172,55c32,4 118,8 189,7c127,-1 131,-2 180,-32c96,-59 166,-77 300,-76c105,1 131,5 206,30c94,33 239,111 239,129c0,6 11,22 24,34c13,12 32,38 42,57c18,34 18,34 -5,56l-23,23l7,-23c9,-29 -18,-72 -45,-72c-11,0 -77,-25 -146,-56c-107,-47 -140,-57 -220,-66c-229,-25 -397,59 -497,250c-122,231 -112,605 19,751c48,53 54,84 18,89c-12,2 -34,-11 -57,-34zM4055,3572c1,-275 102,-499 278,-613c32,-21 71,-41 87,-44c23,-5 30,-12 30,-31c0,-24 0,-24 -37,-9c-21,9 -45,22 -53,30c-9,8 -20,15 -25,15c-12,0 -116,82 -111,88c3,2 -8,15 -24,29c-41,34 -95,153 -126,276c-32,128 -47,377 -22,377c2,0 3,-53 3,-118zM3117,3634c83,-28 109,-55 137,-142c20,-63 46,-201 46,-243c0,-23 -41,-4 -105,47c-81,65 -136,93 -183,94c-40,0 -92,-25 -92,-45c0,-7 -10,-15 -22,-17c-32,-4 -58,-61 -58,-124c0,-44 10,-72 71,-190c39,-77 78,-147 86,-156c15,-16 11,-20 -53,-50c-59,-28 -80,-33 -143,-33c-78,0 -102,-13 -88,-49c24,-62 178,-29 278,60l43,39l-30,-55c-17,-30 -43,-86 -59,-125c-33,-84 -39,-92 -83,-111c-83,-34 -114,-7 -177,162c-39,105 -112,368 -130,474c-33,193 -51,240 -91,240c-29,0 -47,-35 -32,-63c5,-9 24,-87 43,-171c51,-227 144,-508 196,-592c24,-40 24,-65 -1,-114c-22,-44 -46,-60 -104,-71c-65,-12 -93,5 -148,90l-50,76l59,6c89,9 153,51 153,101c0,17 -5,16 -52,-8c-43,-22 -59,-25 -101,-20c-37,5 -53,3 -66,-8c-16,-14 -21,-7 -64,97c-51,123 -109,278 -128,345c-14,48 -49,66 -76,39c-14,-13 -13,-20 2,-68c24,-74 112,-293 136,-340c15,-30 16,-39 6,-39c-8,0 -26,-11 -41,-25c-22,-21 -37,-25 -84,-25c-84,0 -93,-13 -30,-40c75,-33 130,-31 168,5c17,16 30,27 30,24c12,-162 6,-205 -31,-224c-67,-35 -122,0 -187,122c-18,34 -48,80 -67,102c-18,23 -41,65 -49,94c-20,70 -30,81 -106,121l-65,34l2,51c7,150 91,259 224,290c70,15 78,23 117,102c62,128 149,179 243,143c24,-9 63,-19 86,-21c40,-5 42,-4 62,36c52,102 128,149 223,138c34,-4 66,-16 93,-35c49,-36 72,-30 123,29c53,62 87,70 169,43zM4045,3325c27,-95 85,-228 112,-258c23,-24 16,-27 -47,-15c-30,6 -92,7 -137,4c-60,-4 -82,-3 -86,7c-3,9 -9,9 -26,-1c-20,-12 -21,-10 -21,33c0,41 3,46 38,64c48,26 36,26 -75,-3l-92,-24l-33,24c-17,13 -39,24 -47,24c-32,0 8,18 109,50c58,18 117,39 132,47c26,13 28,12 43,-17c20,-39 28,-38 20,3l-6,32l20,-35c11,-19 20,-30 21,-24c1,24 -31,112 -43,116c-17,7 -163,-19 -289,-51c-78,-19 -108,-23 -108,-15c0,7 5,16 10,19c6,3 10,0 10,-7c0,-7 12,5 27,27c34,53 33,51 42,37c5,-9 13,-6 26,10c11,13 13,17 5,11c-20,-19 -29,-16 -23,7c6,24 -12,27 -21,3c-6,-14 -9,-15 -16,-4c-5,9 -15,11 -26,7c-13,-5 -16,-4 -9,3c6,5 46,25 91,44c102,44 200,97 289,156l70,47l7,-115c4,-78 15,-146 33,-206zM4100,3022c0,-5 -7,-17 -15,-28c-15,-19 -20,-8 -9,20c6,17 24,22 24,8zM4135,2994c-9,-15 -12,-23 -5,-19c8,5 11,3 8,-5c-8,-25 -24,-21 -26,6c-2,32 4,44 25,44c13,0 13,-3 -2,-26zM4180,3011c0,-5 -6,-14 -14,-20c-12,-10 -13,-8 -9,8c5,21 23,30 23,12zM4203,2962c16,-18 15,-18 -13,-14c-29,4 -37,12 -23,25c10,11 19,8 36,-11zM1788,2809c-9,-6 -8,-9 7,-9c33,0 4,-16 -100,-55c-117,-44 -287,-117 -320,-139c-24,-16 -24,-16 -9,-68c22,-74 40,-100 65,-93c22,7 22,3 4,-45c-10,-28 -14,-32 -20,-17c-8,20 -41,23 -48,5c-3,-7 -6,-4 -6,7c-2,38 -48,152 -81,201c-18,27 -54,71 -79,97l-46,48l56,-7c30,-3 96,-1 145,5c86,12 343,70 394,89c29,11 61,-5 38,-19zM1847,2639c-2,-32 -4,-32 -65,-13c-21,6 -23,4 -20,-16c3,-20 -6,-26 -72,-51c-178,-66 -243,-89 -256,-89c-7,0 -23,18 -34,41c-20,39 -20,40 -3,35c11,-4 69,12 134,35c158,57 259,88 291,88c24,1 27,-2 25,-30zM1231,2578c6,-10 5,-19 -1,-23c-5,-3 -19,14 -31,37l-22,43l23,-20c12,-11 26,-27 31,-37zM724,2541l19,-33l-34,7c-31,7 -200,8 -343,2c-64,-2 -89,16 -37,28c70,15 242,33 305,32c68,-2 70,-3 90,-36zM1928,2548c8,-8 15,-8 27,2c18,15 21,13 30,-21c6,-24 2,-28 -41,-45c-81,-32 -336,-159 -406,-202c-38,-23 -68,-39 -68,-35c0,13 43,53 57,53c7,0 23,21 36,46l22,47l6,-34l6,-34l21,45c12,25 21,54 21,65c0,13 -5,8 -14,-15c-10,-26 -14,-29 -14,-14c-1,12 2,36 5,53c6,29 12,33 93,57c47,14 97,30 111,34c37,12 94,12 108,-2zM3158,2516c-2,-32 -6,-42 -14,-35c-11,9 -10,28 2,67c8,26 14,10 12,-32zM2727,2473c-17,-18 -22,-8 -11,22c5,12 10,13 17,6c8,-8 6,-16 -6,-28zM1600,2473c-1,-5 -7,-19 -15,-33l-14,-25l-1,26c0,14 3,29 7,32c9,9 23,9 23,0zM1500,2451c0,-6 -4,-13 -10,-16c-5,-3 -10,1 -10,9c0,9 5,16 10,16c6,0 10,-4 10,-9zM2036,2425c9,-14 15,-27 13,-29c-2,-1 -51,-18 -109,-36c-58,-18 -157,-55 -220,-83c-63,-27 -122,-50 -130,-51c-19,-2 -196,-134 -231,-172c-14,-16 -33,-40 -42,-54c-17,-24 -17,-24 -17,28v52l68,50c76,56 221,139 332,189c90,42 302,130 312,131c4,0 15,-11 24,-25zM2439,2366c0,-7 -2,-6 -6,2c-2,6 -11,12 -19,12c-9,0 -12,5 -9,10c8,13 35,-6 34,-24zM2569,2335c-13,-14 -44,-42 -69,-63l-45,-37l38,49c20,27 37,52 37,57c0,4 12,10 28,12c15,2 29,5 31,6c2,0 -7,-10 -20,-24zM1424,2205c-46,-37 -54,-36 -29,1c14,20 25,42 26,48c0,6 5,1 11,-12c9,-18 8,-25 -8,-37zM3510,2009c-62,-121 -122,-201 -261,-344c-98,-100 -146,-142 -153,-135c-5,5 -21,10 -34,10c-20,0 -10,12 55,64c111,90 257,244 343,364c41,56 75,102 77,102c2,0 -10,-27 -27,-61zM3017,1240l-24,-83l-12,36c-15,45 1,114 32,139c31,25 32,6 4,-92zM2745,1010c-3,-5 -15,-10 -26,-10c-11,0 -17,5 -14,10c3,6 15,10 26,10c11,0 17,-4 14,-10zM2759,945c4,-22 -24,-45 -56,-45c-17,0 -23,6 -23,23c0,12 -3,32 -6,44c-6,21 -5,21 38,9c27,-9 44,-20 47,-31zM2833,859c21,-14 -6,-29 -51,-29h-47l31,19c18,11 35,25 40,32c6,10 9,10 12,-1c3,-8 9,-18 15,-21zM2720,860c-19,-13 -30,-13 -30,0c0,6 10,10 23,10c18,0 19,-2 7,-10zM3013,817c3,-8 8,-39 12,-69l7,-55l-50,-21c-75,-33 -83,-26 -27,23c41,37 47,47 35,55c-12,7 -12,12 -2,22c20,20 14,28 -15,17l-28,-10l24,25c28,29 37,32 44,13zM2755,765c-49,-30 -55,-30 -55,-6c0,20 17,27 70,30c22,1 20,-2 -15,-24zM2864,745c-4,-9 -19,-15 -42,-15c-34,0 -35,1 -16,15c26,20 65,20 58,0zM2740,670c-19,-13 -30,-13 -30,0c0,6 10,10 23,10c18,0 19,-2 7,-10zM2926,609c-23,-18 -29,-19 -43,-8c-14,12 -13,14 8,20c13,4 32,7 43,8c16,1 14,-3 -8,-20zM2737,594c-3,-3 -12,-4 -19,-1c-8,3 -5,6 6,6c11,1 17,-2 13,-5z"></path><path d="M2860,3499c0,-6 9,-22 20,-36c11,-14 20,-34 20,-44c0,-10 5,-21 10,-24c16,-10 12,43 -6,81c-15,32 -44,47 -44,23z"></path><path d="M3007,3503c-4,-3 -7,-12 -7,-20c0,-16 27,-17 88,-1l47,12l-40,8c-52,9 -80,10 -88,1z"></path><path d="M2628,3464c-29,-15 -37,-34 -15,-34c6,0 32,7 57,16c30,11 62,14 95,10c47,-5 49,-4 25,9c-33,19 -128,18 -162,-1z"></path><path d="M2705,3421c-17,-28 24,-42 45,-16c8,9 8,15 2,15c-6,0 -17,3 -25,6c-8,3 -18,1 -22,-5z"></path><path d="M2218,3302c-16,-9 -28,-25 -28,-34c0,-23 11,-23 43,2c14,11 41,27 59,35l33,14h-40c-22,0 -52,-7 -67,-17z"></path><path d="M2260,3241c-38,-6 -57,-41 -23,-41c20,0 103,36 103,45c0,6 -32,5 -80,-4z"></path><path d="M4987,3821c-4,-17 -19,-19 -158,-24c-85,-3 -163,-6 -174,-6c-78,-1 -90,-10 -128,-85c-80,-159 -77,-278 11,-467c21,-46 47,-91 57,-99c14,-12 54,-16 174,-18c205,-5 298,4 311,28c12,23 -14,54 -38,45c-8,-3 -104,-8 -212,-12l-198,-6l-40,79c-90,178 -93,271 -13,383c20,27 23,28 142,34c141,8 240,23 265,41c19,15 34,126 16,126c-5,0 -12,-9 -15,-19zM4560,3662c0,-5 -7,-17 -16,-28c-8,-10 -14,-14 -11,-9c2,6 7,18 10,28c7,17 17,23 17,9z"></path><path d="M3627,3043c-4,-3 -7,-16 -7,-27c0,-12 -7,-30 -15,-40c-19,-25 -19,-37 0,-30c21,9 58,72 51,89c-6,16 -18,19 -29,8z"></path><path d="M3621,2926c-19,-21 -21,-29 -13,-58c8,-28 6,-37 -7,-46c-12,-9 -9,-9 13,-1c43,14 48,19 36,34c-7,9 -6,16 3,24c18,14 20,71 3,71c-7,0 -23,-11 -35,-24z"></path><path d="M3591,2609c-18,-7 -22,-14 -17,-33c4,-15 0,-28 -9,-36c-11,-9 -11,-16 -3,-29c8,-13 6,-25 -6,-49c-10,-19 -14,-42 -10,-57c3,-14 1,-32 -6,-40c-6,-8 -9,-23 -5,-35c4,-12 1,-27 -5,-35c-9,-11 -9,-18 3,-30c9,-8 21,-15 28,-15c10,0 10,-3 2,-11c-6,-6 -9,-17 -7,-23c3,-7 -35,-38 -83,-69c-48,-31 -84,-57 -80,-57c15,0 153,73 185,98c31,23 55,60 57,87c0,6 5,16 10,24c5,10 4,16 -4,19c-9,3 -9,7 0,18c9,11 9,14 0,14c-7,0 -9,5 -6,11c11,17 13,59 4,65c-5,3 -4,15 2,26c8,15 8,22 -1,28c-9,5 -6,21 10,58c12,29 20,58 16,67c-6,17 -39,19 -75,4z"></path><path d="M3110,2335c-6,-8 -9,-19 -5,-25c7,-11 34,15 35,33c0,12 -17,8 -30,-8z"></path><path d="M430,1815c0,-2 24,-17 53,-33c102,-59 214,-101 307,-117c83,-15 99,-15 166,-1c91,18 158,53 162,84c5,32 -23,38 -66,14c-55,-30 -139,-52 -201,-52c-63,0 -229,38 -312,71c-62,24 -109,39 -109,34z"></path><path d="M2928,1613c7,-3 16,-2 19,1c4,3 -2,6 -13,5c-11,0 -14,-3 -6,-6z"></path><path d="M2406,1461c-9,-14 77,-85 152,-124c106,-56 241,-83 282,-57c11,7 1,10 -35,10c-110,1 -248,57 -328,134c-48,47 -61,53 -71,37z"></path><path d="M2453,994c-17,-46 9,-244 79,-604l22,-115l9,70c8,72 -3,218 -28,365c-8,45 -11,113 -8,172c6,107 -1,128 -44,128c-13,0 -26,-7 -30,-16z"></path><path d="M2277,918c-15,-5 -29,-19 -32,-31c-3,-12 -1,-91 3,-176c7,-133 10,-155 27,-167c15,-11 22,-11 34,-1c9,6 26,18 39,25c19,11 22,10 22,-5c0,-10 -5,-35 -11,-56c-14,-53 -3,-59 18,-11c14,31 17,69 18,189c0,158 -11,219 -43,228c-9,3 -24,7 -32,10c-8,3 -27,1 -43,-5z"></path><path d="M3010,524l-25,-15l25,7c14,3 29,10 35,15c15,14 -7,10 -35,-7z"></path></g></g></g></svg>