<svg version="1.1" xmlns="http://www.w3.org/2000/svg" xmlns:xlink="http://www.w3.org/1999/xlink" width="100%" height="100%" viewBox="0,0,256,256"><g fill="#ef7218" fill-rule="evenodd" stroke="none" stroke-width="1" stroke-linecap="butt" stroke-linejoin="round" stroke-miterlimit="2" stroke-dasharray="" stroke-dashoffset="0" font-family="none" font-weight="none" font-size="none" text-anchor="none" style="mix-blend-mode: normal"><g transform="translate(0,0)"><g><g><g><g><g><g transform="translate(-0.00051,-0.00005) scale(0.5,0.5)"><g transform="translate(-1124,-562)"><g id="Icons"><path d="M1192.99,661.256h-25.57c-2.76,0 -5,2.238 -5,5v391.684c0,0.1 0,0.21 0.01,0.31v0.03c0.04,0.72 0.23,1.4 0.55,2.01l0.01,0.02l0.01,0.02c0.26,0.5 0.61,0.95 1.01,1.33l0.02,0.01c0.67,0.62 1.52,1.07 2.46,1.24c0.31,0.06 0.63,0.09 0.95,0.09h371.83c2.76,0 5,-2.24 5,-5v-80.799l48.66,-3.45c2.75,-0.195 4.83,-2.586 4.64,-5.341l-27.71,-390.764c-0.19,-2.754 -2.58,-4.829 -5.34,-4.633l-370.91,26.294c-2.76,0.195 -4.83,2.587 -4.64,5.341zM1534.27,933.613c-28.27,34.263 -68.44,60.304 -114.72,79.707c-45.56,19.1 -97.05,31.78 -148.7,39.68h263.42v-80.42c0,-0.027 0,-0.055 0,-0.082zM1534.27,913.169v-206.047h-361.85v344.898l-5.87,1.06c115.16,-20.4 256.12,-62.41 292.6,-200.53c0.53,-1.993 2.23,-3.458 4.27,-3.691c2.05,-0.233 4.03,0.814 4.99,2.637c18.85,35.779 40.45,57.203 65.86,61.673zM1530.29,922.576c-27.4,35.42 -67.83,61.91 -114.61,81.524c-53.09,22.25 -114.34,35.62 -174.37,42.85c95.52,-25.77 190.61,-74.437 224.14,-180.235c18.79,31.77 40.45,50.67 64.84,55.861zM1562.78,619.118l-360.94,25.587l1.17,16.551h336.26c2.76,0 5,2.238 5,5v252.577v48.343l42.97,-3.046zM1300.31,831.451h185.92c2.76,0 5,-2.24 5,-5c0,-2.759 -2.24,-5 -5,-5h-185.92c-2.76,0 -5,2.241 -5,5c0,2.76 2.24,5 5,5zM1300.31,791.529h185.92c2.76,0 5,-2.24 5,-5c0,-2.759 -2.24,-5 -5,-5h-185.92c-2.76,0 -5,2.241 -5,5c0,2.76 2.24,5 5,5zM1217.86,754.295l20.53,12.547c2.06,1.26 4.73,0.866 6.33,-0.936l28.52,-31.938c1.84,-2.058 1.66,-5.222 -0.4,-7.06c-2.06,-1.838 -5.22,-1.658 -7.06,0.4l-25.74,28.826l-16.97,-10.372c-2.36,-1.439 -5.44,-0.695 -6.87,1.66c-1.44,2.354 -0.7,5.434 1.66,6.873zM1300.31,751.607h185.92c2.76,0 5,-2.24 5,-5c0,-2.76 -2.24,-5 -5,-5h-185.92c-2.76,0 -5,2.24 -5,5c0,2.76 2.24,5 5,5zM1172.42,697.122h361.85v-25.866h-335.88c-0.03,0 -0.06,0 -0.08,0h-25.89zM1562.07,609.143l-1.83,-25.802c-43.77,3.103 -360.94,25.587 -360.94,25.587l1.83,25.802z"></path></g></g></g></g></g></g></g></g></g></g></svg>