<svg version="1.1" xmlns="http://www.w3.org/2000/svg" xmlns:xlink="http://www.w3.org/1999/xlink" width="24px" height="24px" viewBox="0,0,256,256"><g fill="#25ffd7" fill-rule="nonzero" stroke="none" stroke-width="1" stroke-linecap="butt" stroke-linejoin="miter" stroke-miterlimit="10" stroke-dasharray="" stroke-dashoffset="0" font-family="none" font-weight="none" font-size="none" text-anchor="none" style="mix-blend-mode: normal"><g transform="translate(6.44266,0) scale(10.66667,10.66667)"><g id="Layer_2"><path d="M4,14c0,4.41828 3.58172,8 8,8c4.41828,0 8,-3.58172 8,-8c0,-4.41828 -3.58172,-8 -8,-8c-4.41828,0 -8,3.58172 -8,8zM12,8c3.31371,0 6,2.68629 6,6c0,3.31371 -2.68629,6 -6,6c-3.31371,0 -6,-2.68629 -6,-6c0,-3.31371 2.68629,-6 6,-6z"></path><rect x="10" y="2" width="4" height="2"></rect><rect x="-2.82635" y="6.77484" transform="rotate(-45)" width="4.24" height="2"></rect><rect x="11" y="10" width="2" height="5"></rect></g></g></g></svg>