<svg version="1.1" xmlns="http://www.w3.org/2000/svg" xmlns:xlink="http://www.w3.org/1999/xlink" width="512px" height="512px" viewBox="0,0,256,256"><g fill="#ffffff" fill-rule="nonzero" stroke="none" stroke-width="1" stroke-linecap="butt" stroke-linejoin="miter" stroke-miterlimit="10" stroke-dasharray="" stroke-dashoffset="0" font-family="none" font-weight="none" font-size="none" text-anchor="none" style="mix-blend-mode: normal"><g transform="scale(0.5,0.5)"><path d="M256,0c-141.38,0 -256,114.62 -256,256c0,141.38 114.62,256 256,256c141.38,0 256,-114.62 256,-256c0,-141.38 -114.62,-256 -256,-256zM479.43,240h-86.08c-0.1,-7.38 -0.48333,-14.74667 -1.15,-22.1c-2.86613,-30.75485 -10.50432,-60.87576 -22.64,-89.28c20.06155,-3.78852 39.86419,-8.83854 59.29,-15.12c29.6494,35.85425 47.33584,80.08783 50.58,126.5zM177.08,129.57c20.82525,3.54517 41.83068,5.93548 62.92,7.16v103.27h-89.33c0.09333,-6.29333 0.42667,-12.56667 1,-18.82c3.07,-35.13 13.27,-66.04 25.41,-91.61zM272,41.41c18.76251,18.51466 35.14534,39.29469 48.77,61.86c-10.12,0.98 -20.33667,1.64667 -30.65,2c-6,0.22 -12.04,0.33 -18.12,0.33zM240,41.41v63.25c-15.49333,-0.94667 -31.04,-2.58333 -46.64,-4.91c3.75,-6.06 7.49,-11.62 11.07,-16.65c10.6101,-14.91061 22.51274,-28.85782 35.57,-41.68zM240,272v103.28c-18,1.04 -36.08333,2.95667 -54.25,5.75c-18.54,-36.62 -29.74333,-72.95333 -33.61,-109zM240,407.33v56.67c-13.59804,-16.86357 -26.12273,-34.56513 -37.5,-53c12.53333,-1.67333 25.03333,-2.89667 37.5,-3.67zM272,406.33c6.05333,0 12.09333,0.11 18.12,0.33c7.13,0.25 14.21,0.68 21.24,1.23c-11.85779,19.55771 -25.00698,38.30265 -39.36,56.11zM291.27,374.68c-6.40667,-0.22667 -12.83,-0.34333 -19.27,-0.35v-102.33h87.86c-3.71333,34.79333 -14.29667,69.89667 -31.75,105.31c-12.14667,-1.28 -24.42667,-2.15 -36.84,-2.61zM272,240v-102.35c6.42667,0 12.85,-0.11667 19.27,-0.35c15.4,-0.55333 30.60333,-1.75667 45.61,-3.61c12.70773,27.4834 20.63795,56.93177 23.45,87.08c0.58,6.4 0.91333,12.81 1,19.23zM403.8,87.69c-16.03635,4.54317 -32.30681,8.21521 -48.74,11c-6.67563,-12.18232 -14.08598,-23.94737 -22.19,-35.23c-6.46,-9 -12.83,-17 -18.76,-23.87c33.20727,8.89883 63.90475,25.36163 89.69,48.1zM197.89,39.61c-5.93,6.91 -12.3,14.89 -18.76,23.87c-6.99372,9.72926 -13.47584,19.81627 -19.42,30.22c-15.02,-3.18 -30.06667,-6.98667 -45.14,-11.42c24.4389,-19.96221 52.83877,-34.50641 83.32,-42.67zM88.2,107.61c18.86667,6.12 37.72333,11.30667 56.57,15.56c-13.44983,29.99631 -21.89499,61.99332 -25,94.72c-0.66667,7.33333 -1.05,14.7 -1.15,22.1h-86.05c3.42721,-49.05344 22.9868,-95.59492 55.63,-132.37zM32.57,272h87.43c3.62,38.18667 14.63667,76.52 33.05,115c-21.88735,4.64555 -43.51413,10.44362 -64.79,17.37c-32.66498,-36.76699 -52.24601,-83.3093 -55.69,-132.37zM114.57,429.72c18,-5.33333 36,-9.73667 54,-13.21c11.76048,20.28184 24.863,39.75521 39.22,58.29c-34.17782,-7.50184 -66.10928,-22.94515 -93.21,-45.08zM304.22,474.8c15.46315,-19.94137 29.45667,-40.98011 41.87,-62.95c19.48212,2.92158 38.75795,7.08337 57.71,12.46c-28.3711,25.00741 -62.64001,42.38276 -99.58,50.49zM428.85,398.5c-22.05873,-7.12966 -44.59972,-12.6705 -67.45,-16.58c16.95333,-36.73333 27.17,-73.37333 30.65,-109.92h87.38c-3.24416,46.41217 -20.9306,90.64575 -50.58,126.5z"></path></g></g></svg>